<?xml version="1.0" encoding="UTF-8"?>
<svg xmlns="http://www.w3.org/2000/svg" xmlns:xlink="http://www.w3.org/1999/xlink" width="4987.77" height="2606.24" viewBox="0 0 4987.77 2606.24">
<defs>
<clipPath id="clip-0">
<path clip-rule="nonzero" d="M 0 0 L 4987.769531 0 L 4987.769531 2606.238281 L 0 2606.238281 Z M 0 0 "/>
</clipPath>
<clipPath id="clip-1">
<path clip-rule="nonzero" d="M 0 0 L 2550 0 L 2550 2606.238281 L 0 2606.238281 Z M 0 0 "/>
</clipPath>
<clipPath id="clip-2">
<path clip-rule="nonzero" d="M 3058 565 L 4535 565 L 4535 2042 L 3058 2042 Z M 3058 565 "/>
</clipPath>
<clipPath id="clip-3">
<path clip-rule="nonzero" d="M 3796.121094 2041.078125 C 3388.558594 2041.078125 3058.160156 1710.679688 3058.160156 1303.121094 C 3058.160156 895.558594 3388.558594 565.160156 3796.121094 565.160156 C 4203.691406 565.160156 4534.078125 895.558594 4534.078125 1303.121094 C 4534.078125 1710.679688 4203.691406 2041.078125 3796.121094 2041.078125 "/>
</clipPath>
<clipPath id="clip-4">
<path clip-rule="nonzero" d="M 3796.121094 2041.078125 C 3388.558594 2041.078125 3058.160156 1710.679688 3058.160156 1303.121094 C 3058.160156 895.558594 3388.558594 565.160156 3796.121094 565.160156 C 4203.691406 565.160156 4534.078125 895.558594 4534.078125 1303.121094 C 4534.078125 1710.679688 4203.691406 2041.078125 3796.121094 2041.078125 "/>
</clipPath>
<radialGradient id="radial-pattern-0" gradientUnits="userSpaceOnUse" cx="0" cy="0" fx="0" fy="0" r="737.958" gradientTransform="matrix(1, 0, 0, 1, 3796.12, 1303.12)">
<stop offset="0" stop-color="rgb(15.214539%, 11.444092%, 8.662415%)" stop-opacity="1"/>
<stop offset="0.25" stop-color="rgb(15.214539%, 11.444092%, 8.662415%)" stop-opacity="1"/>
<stop offset="0.4375" stop-color="rgb(15.214539%, 11.444092%, 8.662415%)" stop-opacity="1"/>
<stop offset="0.453125" stop-color="rgb(15.214539%, 11.444092%, 8.662415%)" stop-opacity="1"/>
<stop offset="0.46875" stop-color="rgb(15.345764%, 11.450195%, 8.670044%)" stop-opacity="1"/>
<stop offset="0.472656" stop-color="rgb(15.701294%, 11.463928%, 8.688354%)" stop-opacity="1"/>
<stop offset="0.476562" stop-color="rgb(16.149902%, 11.541748%, 8.738708%)" stop-opacity="1"/>
<stop offset="0.480469" stop-color="rgb(16.615295%, 11.759949%, 8.847046%)" stop-opacity="1"/>
<stop offset="0.484375" stop-color="rgb(17.060852%, 12.052917%, 8.985901%)" stop-opacity="1"/>
<stop offset="0.488281" stop-color="rgb(17.411804%, 12.336731%, 9.121704%)" stop-opacity="1"/>
<stop offset="0.492188" stop-color="rgb(17.709351%, 12.619019%, 9.265137%)" stop-opacity="1"/>
<stop offset="0.496094" stop-color="rgb(18.121338%, 12.945557%, 9.469604%)" stop-opacity="1"/>
<stop offset="0.5" stop-color="rgb(18.630981%, 13.308716%, 9.724426%)" stop-opacity="1"/>
<stop offset="0.503906" stop-color="rgb(19.033813%, 13.61084%, 9.895325%)" stop-opacity="1"/>
<stop offset="0.507812" stop-color="rgb(19.329834%, 13.853455%, 9.980774%)" stop-opacity="1"/>
<stop offset="0.511719" stop-color="rgb(19.749451%, 14.131165%, 10.113525%)" stop-opacity="1"/>
<stop offset="0.515625" stop-color="rgb(20.320129%, 14.450073%, 10.299683%)" stop-opacity="1"/>
<stop offset="0.519531" stop-color="rgb(20.819092%, 14.749146%, 10.453796%)" stop-opacity="1"/>
<stop offset="0.523438" stop-color="rgb(21.168518%, 15.007019%, 10.545349%)" stop-opacity="1"/>
<stop offset="0.527344" stop-color="rgb(21.536255%, 15.246582%, 10.643005%)" stop-opacity="1"/>
<stop offset="0.53125" stop-color="rgb(22.019958%, 15.466309%, 10.787964%)" stop-opacity="1"/>
<stop offset="0.535156" stop-color="rgb(22.518921%, 15.684509%, 10.943604%)" stop-opacity="1"/>
<stop offset="0.539062" stop-color="rgb(22.904968%, 15.921021%, 11.068726%)" stop-opacity="1"/>
<stop offset="0.542969" stop-color="rgb(23.265076%, 16.20636%, 11.203003%)" stop-opacity="1"/>
<stop offset="0.546875" stop-color="rgb(23.828125%, 16.648865%, 11.453247%)" stop-opacity="1"/>
<stop offset="0.550781" stop-color="rgb(24.537659%, 17.207336%, 11.785889%)" stop-opacity="1"/>
<stop offset="0.554688" stop-color="rgb(25.091553%, 17.643738%, 11.999512%)" stop-opacity="1"/>
<stop offset="0.558594" stop-color="rgb(25.500488%, 17.96875%, 12.10022%)" stop-opacity="1"/>
<stop offset="0.5625" stop-color="rgb(25.949097%, 18.269348%, 12.213135%)" stop-opacity="1"/>
<stop offset="0.566406" stop-color="rgb(26.443481%, 18.540955%, 12.338257%)" stop-opacity="1"/>
<stop offset="0.570312" stop-color="rgb(26.878357%, 18.783569%, 12.464905%)" stop-opacity="1"/>
<stop offset="0.574219" stop-color="rgb(27.235413%, 18.989563%, 12.597656%)" stop-opacity="1"/>
<stop offset="0.578125" stop-color="rgb(27.653503%, 19.230652%, 12.756348%)" stop-opacity="1"/>
<stop offset="0.582031" stop-color="rgb(28.199768%, 19.538879%, 12.957764%)" stop-opacity="1"/>
<stop offset="0.585938" stop-color="rgb(28.778076%, 19.871521%, 13.163757%)" stop-opacity="1"/>
<stop offset="0.589844" stop-color="rgb(29.31366%, 20.205688%, 13.348389%)" stop-opacity="1"/>
<stop offset="0.59375" stop-color="rgb(29.826355%, 20.571899%, 13.534546%)" stop-opacity="1"/>
<stop offset="0.597656" stop-color="rgb(30.337524%, 21.038818%, 13.755798%)" stop-opacity="1"/>
<stop offset="0.601562" stop-color="rgb(30.856323%, 21.54541%, 13.99231%)" stop-opacity="1"/>
<stop offset="0.605469" stop-color="rgb(31.437683%, 21.856689%, 14.176941%)" stop-opacity="1"/>
<stop offset="0.609375" stop-color="rgb(32.072449%, 21.99707%, 14.312744%)" stop-opacity="1"/>
<stop offset="0.613281" stop-color="rgb(32.519531%, 22.238159%, 14.430237%)" stop-opacity="1"/>
<stop offset="0.617188" stop-color="rgb(32.778931%, 22.583008%, 14.529419%)" stop-opacity="1"/>
<stop offset="0.621094" stop-color="rgb(33.198547%, 22.927856%, 14.648438%)" stop-opacity="1"/>
<stop offset="0.625" stop-color="rgb(33.810425%, 23.275757%, 14.793396%)" stop-opacity="1"/>
<stop offset="0.628906" stop-color="rgb(34.315491%, 23.623657%, 14.920044%)" stop-opacity="1"/>
<stop offset="0.632812" stop-color="rgb(34.634399%, 23.977661%, 15.019226%)" stop-opacity="1"/>
<stop offset="0.636719" stop-color="rgb(35.083008%, 24.331665%, 15.161133%)" stop-opacity="1"/>
<stop offset="0.640625" stop-color="rgb(35.871887%, 24.682617%, 15.393066%)" stop-opacity="1"/>
<stop offset="0.644531" stop-color="rgb(36.686707%, 25.015259%, 15.638733%)" stop-opacity="1"/>
<stop offset="0.648438" stop-color="rgb(37.164307%, 25.315857%, 15.821838%)" stop-opacity="1"/>
<stop offset="0.652344" stop-color="rgb(37.47406%, 25.608826%, 15.968323%)" stop-opacity="1"/>
<stop offset="0.65625" stop-color="rgb(37.931824%, 25.942993%, 16.122437%)" stop-opacity="1"/>
<stop offset="0.660156" stop-color="rgb(38.491821%, 26.309204%, 16.279602%)" stop-opacity="1"/>
<stop offset="0.664062" stop-color="rgb(38.954163%, 26.679993%, 16.424561%)" stop-opacity="1"/>
<stop offset="0.667969" stop-color="rgb(39.328003%, 27.059937%, 16.558838%)" stop-opacity="1"/>
<stop offset="0.671875" stop-color="rgb(39.839172%, 27.497864%, 16.786194%)" stop-opacity="1"/>
<stop offset="0.675781" stop-color="rgb(40.498352%, 27.999878%, 17.114258%)" stop-opacity="1"/>
<stop offset="0.679688" stop-color="rgb(41.020203%, 28.363037%, 17.346191%)" stop-opacity="1"/>
<stop offset="0.683594" stop-color="rgb(41.357422%, 28.546143%, 17.448425%)" stop-opacity="1"/>
<stop offset="0.6875" stop-color="rgb(41.749573%, 28.767395%, 17.549133%)" stop-opacity="1"/>
<stop offset="0.691406" stop-color="rgb(42.29126%, 29.10614%, 17.689514%)" stop-opacity="1"/>
<stop offset="0.695312" stop-color="rgb(42.837524%, 29.493713%, 17.822266%)" stop-opacity="1"/>
<stop offset="0.699219" stop-color="rgb(43.280029%, 29.890442%, 17.904663%)" stop-opacity="1"/>
<stop offset="0.703125" stop-color="rgb(43.704224%, 30.303955%, 17.999268%)" stop-opacity="1"/>
<stop offset="0.707031" stop-color="rgb(44.229126%, 30.740356%, 18.211365%)" stop-opacity="1"/>
<stop offset="0.710938" stop-color="rgb(44.807434%, 31.166077%, 18.487549%)" stop-opacity="1"/>
<stop offset="0.714844" stop-color="rgb(45.301819%, 31.443787%, 18.684387%)" stop-opacity="1"/>
<stop offset="0.71875" stop-color="rgb(45.727539%, 31.604004%, 18.815613%)" stop-opacity="1"/>
<stop offset="0.722656" stop-color="rgb(46.255493%, 31.884766%, 18.95752%)" stop-opacity="1"/>
<stop offset="0.726562" stop-color="rgb(46.878052%, 32.284546%, 19.108582%)" stop-opacity="1"/>
<stop offset="0.730469" stop-color="rgb(47.355652%, 32.69043%, 19.258118%)" stop-opacity="1"/>
<stop offset="0.734375" stop-color="rgb(47.662354%, 33.100891%, 19.407654%)" stop-opacity="1"/>
<stop offset="0.738281" stop-color="rgb(48.152161%, 33.578491%, 19.596863%)" stop-opacity="1"/>
<stop offset="0.742188" stop-color="rgb(48.925781%, 34.144592%, 19.844055%)" stop-opacity="1"/>
<stop offset="0.746094" stop-color="rgb(49.62616%, 34.642029%, 20.054626%)" stop-opacity="1"/>
<stop offset="0.75" stop-color="rgb(50.062561%, 34.973145%, 20.172119%)" stop-opacity="1"/>
<stop offset="0.753906" stop-color="rgb(50.431824%, 35.20813%, 20.26825%)" stop-opacity="1"/>
<stop offset="0.757812" stop-color="rgb(50.920105%, 35.380554%, 20.414734%)" stop-opacity="1"/>
<stop offset="0.761719" stop-color="rgb(51.490784%, 35.580444%, 20.599365%)" stop-opacity="1"/>
<stop offset="0.765625" stop-color="rgb(52.105713%, 36.027527%, 20.820618%)" stop-opacity="1"/>
<stop offset="0.769531" stop-color="rgb(52.742004%, 36.645508%, 21.066284%)" stop-opacity="1"/>
<stop offset="0.773438" stop-color="rgb(53.27301%, 37.117004%, 21.295166%)" stop-opacity="1"/>
<stop offset="0.777344" stop-color="rgb(53.70636%, 37.458801%, 21.508789%)" stop-opacity="1"/>
<stop offset="0.78125" stop-color="rgb(54.139709%, 37.85553%, 21.681213%)" stop-opacity="1"/>
<stop offset="0.785156" stop-color="rgb(54.573059%, 38.311768%, 21.813965%)" stop-opacity="1"/>
<stop offset="0.789062" stop-color="rgb(55.024719%, 38.61084%, 21.94519%)" stop-opacity="1"/>
<stop offset="0.792969" stop-color="rgb(55.497742%, 38.711548%, 22.079468%)" stop-opacity="1"/>
<stop offset="0.796875" stop-color="rgb(56.037903%, 38.970947%, 22.253418%)" stop-opacity="1"/>
<stop offset="0.800781" stop-color="rgb(56.680298%, 39.530945%, 22.486877%)" stop-opacity="1"/>
<stop offset="0.804688" stop-color="rgb(57.3349%, 40.126038%, 22.705078%)" stop-opacity="1"/>
<stop offset="0.808594" stop-color="rgb(57.945251%, 40.57312%, 22.842407%)" stop-opacity="1"/>
<stop offset="0.8125" stop-color="rgb(58.48999%, 40.931702%, 22.955322%)" stop-opacity="1"/>
<stop offset="0.816406" stop-color="rgb(58.917236%, 41.244507%, 23.106384%)" stop-opacity="1"/>
<stop offset="0.820312" stop-color="rgb(59.315491%, 41.546631%, 23.295593%)" stop-opacity="1"/>
<stop offset="0.824219" stop-color="rgb(59.957886%, 41.938782%, 23.55957%)" stop-opacity="1"/>
<stop offset="0.828125" stop-color="rgb(60.792542%, 42.405701%, 23.880005%)" stop-opacity="1"/>
<stop offset="0.832031" stop-color="rgb(61.383057%, 42.843628%, 24.133301%)" stop-opacity="1"/>
<stop offset="0.835938" stop-color="rgb(61.735535%, 43.255615%, 24.320984%)" stop-opacity="1"/>
<stop offset="0.839844" stop-color="rgb(62.155151%, 43.6203%, 24.449158%)" stop-opacity="1"/>
<stop offset="0.84375" stop-color="rgb(62.649536%, 43.937683%, 24.510193%)" stop-opacity="1"/>
<stop offset="0.847656" stop-color="rgb(63.139343%, 44.320679%, 24.59259%)" stop-opacity="1"/>
<stop offset="0.851562" stop-color="rgb(63.615417%, 44.801331%, 24.714661%)" stop-opacity="1"/>
<stop offset="0.855469" stop-color="rgb(64.143372%, 45.217896%, 24.876404%)" stop-opacity="1"/>
<stop offset="0.859375" stop-color="rgb(64.761353%, 45.483398%, 25.088501%)" stop-opacity="1"/>
<stop offset="0.863281" stop-color="rgb(65.356445%, 45.73822%, 25.289917%)" stop-opacity="1"/>
<stop offset="0.867188" stop-color="rgb(65.808105%, 46.107483%, 25.418091%)" stop-opacity="1"/>
<stop offset="0.871094" stop-color="rgb(66.218567%, 46.5271%, 25.511169%)" stop-opacity="1"/>
<stop offset="0.875" stop-color="rgb(66.78009%, 46.90094%, 25.630188%)" stop-opacity="1"/>
<stop offset="0.878906" stop-color="rgb(67.437744%, 47.241211%, 25.767517%)" stop-opacity="1"/>
<stop offset="0.882812" stop-color="rgb(68.028259%, 47.573853%, 25.920105%)" stop-opacity="1"/>
<stop offset="0.886719" stop-color="rgb(68.554688%, 47.900391%, 26.0849%)" stop-opacity="1"/>
<stop offset="0.890625" stop-color="rgb(69.142151%, 48.271179%, 26.327515%)" stop-opacity="1"/>
<stop offset="0.894531" stop-color="rgb(69.787598%, 48.681641%, 26.654053%)" stop-opacity="1"/>
<stop offset="0.898438" stop-color="rgb(70.341492%, 49.028015%, 26.896667%)" stop-opacity="1"/>
<stop offset="0.902344" stop-color="rgb(70.782471%, 49.291992%, 27.035522%)" stop-opacity="1"/>
<stop offset="0.90625" stop-color="rgb(71.29364%, 49.668884%, 27.1698%)" stop-opacity="1"/>
<stop offset="0.910156" stop-color="rgb(71.94519%, 50.234985%, 27.325439%)" stop-opacity="1"/>
<stop offset="0.914062" stop-color="rgb(72.563171%, 50.787354%, 27.496338%)" stop-opacity="1"/>
<stop offset="0.917969" stop-color="rgb(73.03009%, 51.185608%, 27.685547%)" stop-opacity="1"/>
<stop offset="0.921875" stop-color="rgb(73.460388%, 51.502991%, 27.888489%)" stop-opacity="1"/>
<stop offset="0.925781" stop-color="rgb(73.985291%, 51.795959%, 28.100586%)" stop-opacity="1"/>
<stop offset="0.929688" stop-color="rgb(74.584961%, 52.114868%, 28.288269%)" stop-opacity="1"/>
<stop offset="0.933594" stop-color="rgb(75.25177%, 52.624512%, 28.330994%)" stop-opacity="1"/>
<stop offset="0.9375" stop-color="rgb(75.96283%, 53.269958%, 28.262329%)" stop-opacity="1"/>
<stop offset="0.941406" stop-color="rgb(76.535034%, 53.723145%, 28.292847%)" stop-opacity="1"/>
<stop offset="0.945312" stop-color="rgb(76.977539%, 53.993225%, 28.421021%)" stop-opacity="1"/>
<stop offset="0.949219" stop-color="rgb(77.546692%, 54.249573%, 28.556824%)" stop-opacity="1"/>
<stop offset="0.953125" stop-color="rgb(78.259277%, 54.492188%, 28.69873%)" stop-opacity="1"/>
<stop offset="0.957031" stop-color="rgb(78.892517%, 54.826355%, 28.862%)" stop-opacity="1"/>
<stop offset="0.960938" stop-color="rgb(79.406738%, 55.28717%, 29.05426%)" stop-opacity="1"/>
<stop offset="0.964844" stop-color="rgb(79.83551%, 55.754089%, 29.243469%)" stop-opacity="1"/>
<stop offset="0.96875" stop-color="rgb(80.168152%, 56.175232%, 29.418945%)" stop-opacity="1"/>
<stop offset="0.972656" stop-color="rgb(80.506897%, 56.535339%, 29.562378%)" stop-opacity="1"/>
<stop offset="0.976562" stop-color="rgb(80.938721%, 56.799316%, 29.650879%)" stop-opacity="1"/>
<stop offset="0.980469" stop-color="rgb(81.469727%, 57.049561%, 29.772949%)" stop-opacity="1"/>
<stop offset="0.984375" stop-color="rgb(82.147217%, 57.432556%, 30.107117%)" stop-opacity="1"/>
<stop offset="0.988281" stop-color="rgb(82.90863%, 57.887268%, 30.561829%)" stop-opacity="1"/>
<stop offset="0.992188" stop-color="rgb(83.520508%, 58.213806%, 30.804443%)" stop-opacity="1"/>
<stop offset="0.996094" stop-color="rgb(84.010315%, 58.432007%, 30.86853%)" stop-opacity="1"/>
<stop offset="1" stop-color="rgb(84.254456%, 58.540344%, 30.900574%)" stop-opacity="1"/>
</radialGradient>
</defs>
<g clip-path="url(#clip-0)">
<path fill-rule="nonzero" fill="rgb(84.428406%, 58.769226%, 30.992126%)" fill-opacity="1" d="M 0 2606.238281 L 4987.769531 2606.238281 L 4987.769531 0 L 0 0 Z M 0 2606.238281 "/>
</g>
<g clip-path="url(#clip-1)">
<path fill-rule="nonzero" fill="rgb(100%, 100%, 100%)" fill-opacity="1" d="M 0 0 L 2549.179688 0 L 2549.179688 2606.238281 L 0 2606.238281 L 0 0 "/>
</g>
<path fill-rule="nonzero" fill="rgb(12.860107%, 11.213684%, 11.195374%)" fill-opacity="1" d="M 680.371094 1984.171875 L 680.371094 1990.640625 L 663.757812 1990.640625 L 663.757812 2045.121094 L 655.800781 2045.121094 L 655.800781 1990.640625 L 639.101562 1990.640625 L 639.101562 1984.171875 L 680.371094 1984.171875 "/>
<path fill-rule="nonzero" fill="rgb(12.860107%, 11.213684%, 11.195374%)" fill-opacity="1" d="M 776.375 2025.089844 L 765.355469 1994.320312 L 754.339844 2025.089844 Z M 778.648438 2031.558594 L 752.066406 2031.558594 L 747.171875 2045.121094 L 738.777344 2045.121094 L 760.8125 1984.519531 L 769.992188 1984.519531 L 791.9375 2045.121094 L 783.542969 2045.121094 L 778.648438 2031.558594 "/>
<path fill-rule="nonzero" fill="rgb(12.860107%, 11.213684%, 11.195374%)" fill-opacity="1" d="M 900.183594 2001.828125 C 898.492188 1998.28125 896.046875 1995.53125 892.839844 1993.570312 C 889.632812 1991.621094 885.902344 1990.640625 881.648438 1990.640625 C 877.394531 1990.640625 873.558594 1991.621094 870.148438 1993.570312 C 866.738281 1995.53125 864.058594 1998.320312 862.105469 2001.96875 C 860.152344 2005.609375 859.175781 2009.820312 859.175781 2014.601562 C 859.175781 2019.378906 860.152344 2023.578125 862.105469 2027.191406 C 864.058594 2030.808594 866.738281 2033.589844 870.148438 2035.539062 C 873.558594 2037.488281 877.394531 2038.46875 881.648438 2038.46875 C 887.59375 2038.46875 892.488281 2036.691406 896.335938 2033.140625 C 900.183594 2029.578125 902.429688 2024.769531 903.070312 2018.710938 L 878.761719 2018.710938 L 878.761719 2012.238281 L 911.550781 2012.238281 L 911.550781 2018.359375 C 911.085938 2023.371094 909.511719 2027.960938 906.828125 2032.128906 C 904.148438 2036.300781 900.621094 2039.589844 896.25 2042.011719 C 891.878906 2044.429688 887.011719 2045.640625 881.648438 2045.640625 C 875.992188 2045.640625 870.835938 2044.320312 866.171875 2041.660156 C 861.507812 2039.011719 857.820312 2035.320312 855.109375 2030.601562 C 852.402344 2025.878906 851.046875 2020.550781 851.046875 2014.601562 C 851.046875 2008.660156 852.402344 2003.308594 855.109375 1998.558594 C 857.820312 1993.808594 861.507812 1990.101562 866.171875 1987.449219 C 870.835938 1984.800781 875.992188 1983.46875 881.648438 1983.46875 C 888.117188 1983.46875 893.847656 1985.078125 898.828125 1988.28125 C 903.8125 1991.488281 907.441406 1996.011719 909.714844 2001.828125 L 900.183594 2001.828125 "/>
<path fill-rule="nonzero" fill="rgb(12.860107%, 11.213684%, 11.195374%)" fill-opacity="1" d="M 982.464844 2038.648438 L 1003.800781 2038.648438 L 1003.800781 2045.121094 L 974.507812 2045.121094 L 974.507812 1984.171875 L 982.464844 1984.171875 L 982.464844 2038.648438 "/>
<path fill-rule="nonzero" fill="rgb(12.860107%, 11.213684%, 11.195374%)" fill-opacity="1" d="M 1072.699219 1984.171875 L 1072.699219 2045.121094 L 1064.738281 2045.121094 L 1064.738281 1984.171875 L 1072.699219 1984.171875 "/>
<path fill-rule="nonzero" fill="rgb(12.860107%, 11.213684%, 11.195374%)" fill-opacity="1" d="M 1186.628906 2045.121094 L 1178.671875 2045.121094 L 1146.671875 1996.589844 L 1146.671875 2045.121094 L 1138.710938 2045.121094 L 1138.710938 1984.078125 L 1146.671875 1984.078125 L 1178.671875 2032.53125 L 1178.671875 1984.078125 L 1186.628906 1984.078125 L 1186.628906 2045.121094 "/>
<path fill-rule="nonzero" fill="rgb(12.860107%, 11.213684%, 11.195374%)" fill-opacity="1" d="M 1260.601562 1990.640625 L 1260.601562 2011.019531 L 1282.808594 2011.019531 L 1282.808594 2017.570312 L 1260.601562 2017.570312 L 1260.601562 2038.558594 L 1285.429688 2038.558594 L 1285.429688 2045.121094 L 1252.640625 2045.121094 L 1252.640625 1984.078125 L 1285.429688 1984.078125 L 1285.429688 1990.640625 L 1260.601562 1990.640625 "/>
<path fill-rule="nonzero" fill="rgb(12.860107%, 11.213684%, 11.195374%)" fill-opacity="1" d="M 1472.71875 1984.171875 L 1472.71875 2045.121094 L 1464.761719 2045.121094 L 1464.761719 2017.488281 L 1433.71875 2017.488281 L 1433.71875 2045.121094 L 1425.761719 2045.121094 L 1425.761719 1984.171875 L 1433.71875 1984.171875 L 1433.71875 2010.929688 L 1464.761719 2010.929688 L 1464.761719 1984.171875 L 1472.71875 1984.171875 "/>
<path fill-rule="nonzero" fill="rgb(12.860107%, 11.213684%, 11.195374%)" fill-opacity="1" d="M 1546.691406 1990.640625 L 1546.691406 2011.019531 L 1568.898438 2011.019531 L 1568.898438 2017.570312 L 1546.691406 2017.570312 L 1546.691406 2038.558594 L 1571.519531 2038.558594 L 1571.519531 2045.121094 L 1538.730469 2045.121094 L 1538.730469 1984.078125 L 1571.519531 1984.078125 L 1571.519531 1990.640625 L 1546.691406 1990.640625 "/>
<path fill-rule="nonzero" fill="rgb(12.860107%, 11.213684%, 11.195374%)" fill-opacity="1" d="M 1644 2013.808594 L 1655.71875 2013.808594 C 1660.03125 2013.808594 1663.269531 2012.75 1665.429688 2010.621094 C 1667.578125 2008.488281 1668.660156 2005.648438 1668.660156 2002.101562 C 1668.660156 1998.480469 1667.601562 1995.691406 1665.46875 1993.699219 C 1663.339844 1991.71875 1660.089844 1990.730469 1655.71875 1990.730469 L 1644 1990.730469 Z M 1668.140625 2045.121094 L 1653.621094 2020.199219 L 1644 2020.199219 L 1644 2045.121094 L 1636.050781 2045.121094 L 1636.050781 1984.171875 L 1655.71875 1984.171875 C 1660.320312 1984.171875 1664.21875 1984.960938 1667.390625 1986.53125 C 1670.570312 1988.109375 1672.941406 1990.238281 1674.519531 1992.921875 C 1676.089844 1995.601562 1676.878906 1998.660156 1676.878906 2002.101562 C 1676.878906 2006.289062 1675.671875 2010 1673.25 2013.199219 C 1670.828125 2016.410156 1667.199219 2018.53125 1662.359375 2019.578125 L 1677.671875 2045.121094 L 1668.140625 2045.121094 "/>
<path fill-rule="nonzero" fill="rgb(12.860107%, 11.213684%, 11.195374%)" fill-opacity="1" d="M 1749.628906 1990.640625 L 1749.628906 2011.019531 L 1771.839844 2011.019531 L 1771.839844 2017.570312 L 1749.628906 2017.570312 L 1749.628906 2038.558594 L 1774.460938 2038.558594 L 1774.460938 2045.121094 L 1741.671875 2045.121094 L 1741.671875 1984.078125 L 1774.460938 1984.078125 L 1774.460938 1990.640625 L 1749.628906 1990.640625 "/>
<path fill-rule="nonzero" fill="rgb(12.860107%, 11.213684%, 11.195374%)" fill-opacity="1" d="M 509.230469 1786.351562 L 497.566406 1786.351562 L 497.566406 1833.71875 C 497.566406 1840.28125 497.816406 1844.539062 498.324219 1846.5 C 498.832031 1848.460938 499.980469 1850.519531 501.773438 1852.691406 C 503.566406 1854.851562 506.457031 1856.589844 510.445312 1857.910156 C 514.4375 1859.230469 520.183594 1859.890625 527.691406 1859.890625 C 539.320312 1859.890625 547.535156 1857.199219 552.339844 1851.820312 C 557.140625 1846.449219 559.542969 1838.488281 559.542969 1827.941406 C 559.542969 1816.980469 557.410156 1808.050781 553.152344 1801.160156 C 548.890625 1794.261719 544.074219 1790.070312 538.695312 1788.578125 C 533.320312 1787.089844 523.496094 1786.351562 509.230469 1786.351562 Z M 497.566406 1717.570312 L 497.566406 1783.199219 L 515.722656 1783.199219 C 528.027344 1783.199219 536.195312 1779.691406 540.21875 1772.648438 C 544.242188 1765.621094 546.253906 1758.621094 546.253906 1751.660156 C 546.253906 1744.148438 544.699219 1737.878906 541.589844 1732.839844 C 538.476562 1727.800781 533.929688 1724 527.945312 1721.429688 C 521.960938 1718.859375 513.152344 1717.570312 501.519531 1717.570312 Z M 469.769531 1715.949219 L 469.769531 1714.429688 L 508.621094 1714.429688 C 519.980469 1714.429688 528.027344 1714.898438 532.761719 1715.851562 C 537.496094 1716.800781 542.027344 1718.609375 546.355469 1721.28125 C 550.683594 1723.949219 554.367188 1727.800781 557.410156 1732.839844 C 560.453125 1737.878906 561.976562 1743.609375 561.976562 1750.03125 C 561.976562 1762.679688 555.753906 1772.648438 543.3125 1779.960938 C 554.0625 1781.78125 562.179688 1786.230469 567.65625 1793.300781 C 573.132812 1800.359375 575.871094 1808.929688 575.871094 1819.011719 C 575.871094 1828.410156 573.523438 1836.960938 568.824219 1844.671875 C 564.121094 1852.378906 558.746094 1857.5 552.695312 1860.039062 C 546.640625 1862.578125 538.171875 1863.839844 527.285156 1863.839844 L 469.570312 1863.839844 L 469.570312 1862.320312 C 474.164062 1862.320312 477.109375 1861.390625 478.394531 1859.53125 C 479.675781 1857.679688 480.320312 1852.929688 480.320312 1845.289062 L 480.320312 1732.78125 C 480.320312 1727.371094 480.167969 1723.691406 479.863281 1721.730469 C 479.558594 1719.769531 478.5625 1718.320312 476.871094 1717.371094 C 475.179688 1716.429688 472.8125 1715.949219 469.769531 1715.949219 "/>
<path fill-rule="nonzero" fill="rgb(12.860107%, 11.213684%, 11.195374%)" fill-opacity="1" d="M 590.480469 1716.148438 L 590.480469 1714.429688 L 684.40625 1714.429688 L 684.40625 1735.019531 L 682.886719 1735.019531 C 680.859375 1727.378906 679.148438 1722.878906 677.765625 1721.53125 C 676.378906 1720.179688 672.980469 1719.5 667.570312 1719.5 L 618.273438 1719.5 L 618.273438 1786.550781 L 664.019531 1786.550781 C 668.550781 1786.550781 671.425781 1786.128906 672.640625 1785.28125 C 673.859375 1784.441406 674.5 1783.199219 674.570312 1781.578125 L 676.089844 1781.578125 L 676.089844 1795.679688 L 674.570312 1795.679688 C 674.230469 1793.71875 673.4375 1792.398438 672.1875 1791.71875 C 670.933594 1791.050781 668.617188 1790.710938 665.238281 1790.710938 L 618.273438 1790.710938 L 618.273438 1836.859375 C 618.273438 1843.828125 618.914062 1848.851562 620.195312 1851.929688 C 621.480469 1855 623.523438 1856.929688 626.324219 1857.710938 C 629.128906 1858.488281 633.363281 1858.871094 639.039062 1858.871094 L 665.375 1858.871094 C 673.746094 1858.871094 679.097656 1858.589844 681.429688 1858.019531 C 683.757812 1857.449219 685.734375 1856.308594 687.355469 1854.589844 C 688.976562 1852.878906 690.226562 1849.128906 691.105469 1843.351562 L 692.625 1843.351562 L 692.625 1863.839844 L 590.480469 1863.839844 L 590.480469 1862.320312 C 593.929688 1862.121094 596.546875 1861.460938 598.339844 1860.351562 C 600.132812 1859.230469 601.027344 1856.339844 601.027344 1851.679688 L 601.027344 1731.050781 C 601.027344 1725.578125 600.554688 1721.730469 599.609375 1719.5 C 598.660156 1717.269531 595.617188 1716.148438 590.480469 1716.148438 "/>
<path fill-rule="nonzero" fill="rgb(12.860107%, 11.213684%, 11.195374%)" fill-opacity="1" d="M 739.601562 1790.910156 L 780.011719 1790.910156 L 759.824219 1739.988281 Z M 782.019531 1795.070312 L 738.167969 1795.070312 L 715.550781 1851.46875 C 713.992188 1855.53125 713.214844 1858.03125 713.214844 1858.980469 C 713.214844 1861.210938 714.871094 1862.320312 718.1875 1862.320312 L 718.1875 1863.839844 L 695.972656 1863.839844 L 695.972656 1862.320312 C 698.945312 1862.320312 701.441406 1861.601562 703.46875 1860.140625 C 705.496094 1858.691406 707.726562 1854.910156 710.15625 1848.828125 L 764.316406 1712.199219 L 767 1712.199219 L 820.273438 1844.148438 C 820.273438 1844.828125 821.636719 1848.03125 824.371094 1853.738281 C 827.101562 1859.460938 831.269531 1862.320312 836.863281 1862.320312 L 836.863281 1863.839844 L 801.972656 1863.839844 L 801.972656 1862.320312 C 805.148438 1862.320312 806.738281 1861.070312 806.738281 1858.570312 C 806.738281 1856.878906 805.960938 1854.171875 804.40625 1850.449219 C 804.136719 1850.191406 803.898438 1849.738281 803.695312 1849.140625 C 803.558594 1848.460938 803.457031 1848.121094 803.390625 1848.121094 L 782.019531 1795.070312 "/>
<path fill-rule="nonzero" fill="rgb(12.860107%, 11.213684%, 11.195374%)" fill-opacity="1" d="M 974.613281 1863.839844 L 946.316406 1863.839844 L 946.316406 1840.820312 C 931.925781 1856.851562 914.765625 1864.859375 894.839844 1864.859375 C 880.042969 1864.859375 868.304688 1860.699219 859.625 1852.378906 C 850.945312 1844.058594 846.605469 1832.570312 846.605469 1817.890625 L 846.605469 1728.429688 C 846.605469 1723.019531 845.960938 1719.589844 844.675781 1718.128906 C 843.390625 1716.679688 840.382812 1715.949219 835.648438 1715.949219 L 835.648438 1714.429688 L 875.3125 1714.429688 L 875.3125 1715.949219 C 871.117188 1715.949219 868.160156 1716.609375 866.433594 1717.929688 C 864.710938 1719.25 863.847656 1722.378906 863.847656 1727.308594 L 863.847656 1809.371094 C 863.847656 1826.550781 867.863281 1838.808594 875.902344 1846.140625 C 883.941406 1853.480469 893.09375 1857.148438 903.359375 1857.148438 C 919.5 1857.148438 933.820312 1849.878906 946.316406 1835.339844 L 946.316406 1734.210938 C 946.316406 1725.351562 945.535156 1720.089844 943.984375 1718.441406 C 942.425781 1716.78125 939.992188 1715.949219 936.679688 1715.949219 L 935.257812 1715.949219 L 935.257812 1714.429688 L 974.613281 1714.429688 L 974.613281 1715.949219 C 969.746094 1716.21875 966.6875 1717.03125 965.4375 1718.378906 C 964.183594 1719.738281 963.558594 1722.300781 963.558594 1726.089844 L 963.558594 1847.730469 C 963.558594 1852.53125 963.796875 1855.671875 964.269531 1857.148438 C 964.742188 1858.640625 965.703125 1859.871094 967.160156 1860.851562 C 968.613281 1861.828125 971.097656 1862.320312 974.613281 1862.320312 L 974.613281 1863.839844 "/>
<path fill-rule="nonzero" fill="rgb(12.860107%, 11.213684%, 11.195374%)" fill-opacity="1" d="M 1108.808594 1709.261719 L 1101.710938 1727.308594 L 1100.191406 1727.308594 C 1100.460938 1726.230469 1100.601562 1724.78125 1100.601562 1722.949219 C 1100.601562 1721.398438 1100.039062 1720.398438 1098.929688 1719.960938 C 1097.808594 1719.519531 1096.039062 1719.300781 1093.609375 1719.300781 L 1054.648438 1719.300781 L 1054.648438 1847.121094 C 1054.648438 1852.390625 1055.070312 1855.988281 1055.921875 1857.910156 C 1056.761719 1859.839844 1057.910156 1861.058594 1059.359375 1861.558594 C 1060.820312 1862.070312 1063.171875 1862.320312 1066.410156 1862.320312 L 1066.410156 1863.839844 L 1025.941406 1863.839844 L 1025.941406 1862.320312 C 1031.011719 1861.988281 1034.191406 1861.011719 1035.480469 1859.378906 C 1036.761719 1857.761719 1037.398438 1854.378906 1037.398438 1849.25 L 1037.398438 1719.300781 L 1000.058594 1719.300781 C 996.277344 1719.300781 993.816406 1719.519531 992.667969 1719.960938 C 991.519531 1720.398438 990.945312 1721.5 990.945312 1723.25 C 990.945312 1724.128906 991.214844 1725.488281 991.757812 1727.308594 L 990.238281 1727.308594 L 983.136719 1709.261719 L 984.65625 1709.261719 C 985.871094 1711.691406 987.070312 1713.160156 988.253906 1713.671875 C 989.433594 1714.179688 991.980469 1714.429688 995.898438 1714.429688 L 1095.039062 1714.429688 C 1098.960938 1714.429688 1101.769531 1714.179688 1103.5 1713.671875 C 1105.21875 1713.160156 1106.480469 1711.691406 1107.289062 1709.261719 L 1108.808594 1709.261719 "/>
<path fill-rule="nonzero" fill="rgb(12.860107%, 11.213684%, 11.195374%)" fill-opacity="1" d="M 1203.960938 1714.429688 L 1226.378906 1714.429688 L 1226.378906 1715.949219 C 1223.539062 1716.148438 1221.210938 1716.828125 1219.378906 1717.980469 C 1217.550781 1719.128906 1215.460938 1721.5 1213.089844 1725.078125 L 1176.570312 1780.46875 L 1176.570312 1848.871094 C 1176.570312 1854.398438 1177.289062 1858.019531 1178.71875 1859.738281 C 1180.160156 1861.460938 1183.261719 1862.320312 1188.039062 1862.320312 L 1188.039062 1863.839844 L 1148.070312 1863.839844 L 1148.070312 1862.320312 C 1155.710938 1862.800781 1159.53125 1859.789062 1159.53125 1853.300781 L 1159.328125 1849.039062 L 1159.328125 1785.890625 L 1122.710938 1725.28125 C 1118.859375 1718.859375 1114.558594 1715.75 1109.828125 1715.949219 L 1109.828125 1714.429688 L 1145.128906 1714.429688 L 1145.128906 1715.949219 C 1141.839844 1715.949219 1140.199219 1717.199219 1140.199219 1719.699219 C 1140.199219 1720.980469 1141.039062 1722.96875 1142.730469 1725.671875 L 1172.871094 1775.390625 L 1205.789062 1725.28125 C 1206.390625 1724.738281 1207.070312 1723.738281 1207.808594 1722.289062 C 1208.558594 1720.839844 1208.929688 1719.839844 1208.929688 1719.300781 C 1208.929688 1717.070312 1207.480469 1715.949219 1204.570312 1715.949219 L 1203.960938 1715.949219 L 1203.960938 1714.429688 "/>
<path fill-rule="nonzero" fill="rgb(12.860107%, 11.213684%, 11.195374%)" fill-opacity="1" d="M 1378.128906 1858.46875 C 1388.410156 1858.46875 1398.550781 1855.710938 1408.558594 1850.199219 C 1418.570312 1844.691406 1426.441406 1837.101562 1432.191406 1827.429688 C 1437.941406 1817.761719 1440.808594 1807.820312 1440.808594 1797.609375 C 1440.808594 1782.800781 1436.808594 1769.390625 1428.800781 1757.390625 C 1420.78125 1745.390625 1410.621094 1736.171875 1398.308594 1729.75 C 1386.011719 1723.320312 1374.851562 1720.109375 1364.839844 1720.109375 C 1350.03125 1720.109375 1336.589844 1725.691406 1324.519531 1736.851562 C 1312.449219 1748 1306.410156 1761.871094 1306.410156 1778.441406 C 1306.410156 1799.46875 1313.769531 1818.058594 1328.46875 1834.230469 C 1343.179688 1850.390625 1359.730469 1858.46875 1378.128906 1858.46875 Z M 1388.269531 1863.441406 C 1388.339844 1863.640625 1389.351562 1864.378906 1391.308594 1865.671875 L 1407.039062 1876.828125 C 1415.621094 1882.910156 1423.589844 1887.871094 1430.929688 1891.691406 C 1438.261719 1895.511719 1445.578125 1898.46875 1452.890625 1900.558594 C 1460.191406 1902.660156 1467.460938 1903.710938 1474.691406 1903.710938 C 1477.46875 1903.710938 1481.351562 1903.371094 1486.359375 1902.691406 L 1486.558594 1903.910156 C 1482.300781 1905.941406 1477.230469 1907.628906 1471.351562 1908.980469 C 1465.460938 1910.339844 1461.03125 1911.011719 1458.058594 1911.011719 C 1447.238281 1911.011719 1433.070312 1907.019531 1415.558594 1899.039062 C 1398.039062 1891.058594 1381.539062 1880.109375 1366.058594 1866.179688 C 1343.671875 1866.179688 1326.238281 1859.128906 1313.769531 1845.03125 C 1301.289062 1830.929688 1295.050781 1815.050781 1295.050781 1797.398438 C 1295.050781 1783.949219 1298.28125 1770.640625 1304.738281 1757.488281 C 1311.199219 1744.339844 1320.769531 1733.5 1333.449219 1724.980469 C 1346.128906 1716.460938 1361.21875 1712.199219 1378.738281 1712.199219 C 1399.769531 1712.199219 1416.929688 1718.609375 1430.21875 1731.421875 C 1443.5 1744.238281 1450.148438 1760.179688 1450.148438 1779.25 C 1450.148438 1798.320312 1444.890625 1815.878906 1434.371094 1831.941406 C 1423.859375 1848 1408.488281 1858.5 1388.269531 1863.441406 "/>
<path fill-rule="nonzero" fill="rgb(12.860107%, 11.213684%, 11.195374%)" fill-opacity="1" d="M 1606.859375 1863.839844 L 1578.558594 1863.839844 L 1578.558594 1840.820312 C 1564.171875 1856.851562 1547.011719 1864.859375 1527.089844 1864.859375 C 1512.289062 1864.859375 1500.550781 1860.699219 1491.871094 1852.378906 C 1483.191406 1844.058594 1478.851562 1832.570312 1478.851562 1817.890625 L 1478.851562 1728.429688 C 1478.851562 1723.019531 1478.210938 1719.589844 1476.929688 1718.128906 C 1475.640625 1716.679688 1472.628906 1715.949219 1467.898438 1715.949219 L 1467.898438 1714.429688 L 1507.558594 1714.429688 L 1507.558594 1715.949219 C 1503.359375 1715.949219 1500.410156 1716.609375 1498.679688 1717.929688 C 1496.960938 1719.25 1496.101562 1722.378906 1496.101562 1727.308594 L 1496.101562 1809.371094 C 1496.101562 1826.550781 1500.109375 1838.808594 1508.148438 1846.140625 C 1516.191406 1853.480469 1525.339844 1857.148438 1535.609375 1857.148438 C 1551.75 1857.148438 1566.070312 1849.878906 1578.558594 1835.339844 L 1578.558594 1734.210938 C 1578.558594 1725.351562 1577.789062 1720.089844 1576.230469 1718.441406 C 1574.671875 1716.78125 1572.238281 1715.949219 1568.929688 1715.949219 L 1567.511719 1715.949219 L 1567.511719 1714.429688 L 1606.859375 1714.429688 L 1606.859375 1715.949219 C 1602 1716.21875 1598.929688 1717.03125 1597.679688 1718.378906 C 1596.429688 1719.738281 1595.808594 1722.300781 1595.808594 1726.089844 L 1595.808594 1847.730469 C 1595.808594 1852.53125 1596.039062 1855.671875 1596.519531 1857.148438 C 1596.988281 1858.640625 1597.949219 1859.871094 1599.410156 1860.851562 C 1600.859375 1861.828125 1603.351562 1862.320312 1606.859375 1862.320312 L 1606.859375 1863.839844 "/>
<path fill-rule="nonzero" fill="rgb(12.860107%, 11.213684%, 11.195374%)" fill-opacity="1" d="M 1623.5 1716.148438 L 1623.5 1714.429688 L 1717.429688 1714.429688 L 1717.429688 1735.019531 L 1715.910156 1735.019531 C 1713.878906 1727.378906 1712.171875 1722.878906 1710.78125 1721.53125 C 1709.398438 1720.179688 1706 1719.5 1700.589844 1719.5 L 1651.289062 1719.5 L 1651.289062 1786.550781 L 1697.039062 1786.550781 C 1701.570312 1786.550781 1704.441406 1786.128906 1705.660156 1785.28125 C 1706.878906 1784.441406 1707.519531 1783.199219 1707.589844 1781.578125 L 1709.109375 1781.578125 L 1709.109375 1795.679688 L 1707.589844 1795.679688 C 1707.25 1793.71875 1706.460938 1792.398438 1705.210938 1791.71875 C 1703.949219 1791.050781 1701.640625 1790.710938 1698.261719 1790.710938 L 1651.289062 1790.710938 L 1651.289062 1836.859375 C 1651.289062 1843.828125 1651.929688 1848.851562 1653.21875 1851.929688 C 1654.5 1855 1656.539062 1856.929688 1659.339844 1857.710938 C 1662.148438 1858.488281 1666.378906 1858.871094 1672.058594 1858.871094 L 1698.390625 1858.871094 C 1706.769531 1858.871094 1712.121094 1858.589844 1714.449219 1858.019531 C 1716.78125 1857.449219 1718.75 1856.308594 1720.371094 1854.589844 C 1721.988281 1852.878906 1723.25 1849.128906 1724.121094 1843.351562 L 1725.640625 1843.351562 L 1725.640625 1863.839844 L 1623.5 1863.839844 L 1623.5 1862.320312 C 1626.949219 1862.121094 1629.570312 1861.460938 1631.359375 1860.351562 C 1633.148438 1859.230469 1634.050781 1856.339844 1634.050781 1851.679688 L 1634.050781 1731.050781 C 1634.050781 1725.578125 1633.570312 1721.730469 1632.628906 1719.5 C 1631.679688 1717.269531 1628.640625 1716.148438 1623.5 1716.148438 "/>
<path fill-rule="nonzero" fill="rgb(12.860107%, 11.213684%, 11.195374%)" fill-opacity="1" d="M 1736.089844 1716.148438 L 1736.089844 1714.429688 L 1830.019531 1714.429688 L 1830.019531 1735.019531 L 1828.5 1735.019531 C 1826.46875 1727.378906 1824.761719 1722.878906 1823.378906 1721.53125 C 1821.988281 1720.179688 1818.589844 1719.5 1813.179688 1719.5 L 1763.890625 1719.5 L 1763.890625 1786.550781 L 1809.628906 1786.550781 C 1814.160156 1786.550781 1817.039062 1786.128906 1818.261719 1785.28125 C 1819.46875 1784.441406 1820.109375 1783.199219 1820.179688 1781.578125 L 1821.699219 1781.578125 L 1821.699219 1795.679688 L 1820.179688 1795.679688 C 1819.839844 1793.71875 1819.050781 1792.398438 1817.800781 1791.71875 C 1816.550781 1791.050781 1814.230469 1790.710938 1810.851562 1790.710938 L 1763.890625 1790.710938 L 1763.890625 1836.859375 C 1763.890625 1843.828125 1764.53125 1848.851562 1765.808594 1851.929688 C 1767.089844 1855 1769.140625 1856.929688 1771.941406 1857.710938 C 1774.738281 1858.488281 1778.980469 1858.871094 1784.648438 1858.871094 L 1810.988281 1858.871094 C 1819.359375 1858.871094 1824.710938 1858.589844 1827.039062 1858.019531 C 1829.371094 1857.449219 1831.351562 1856.308594 1832.96875 1854.589844 C 1834.589844 1852.878906 1835.839844 1849.128906 1836.71875 1843.351562 L 1838.238281 1843.351562 L 1838.238281 1863.839844 L 1736.089844 1863.839844 L 1736.089844 1862.320312 C 1739.539062 1862.121094 1742.160156 1861.460938 1743.949219 1860.351562 C 1745.738281 1859.230469 1746.640625 1856.339844 1746.640625 1851.679688 L 1746.640625 1731.050781 C 1746.640625 1725.578125 1746.171875 1721.730469 1745.21875 1719.5 C 1744.269531 1717.269531 1741.230469 1716.148438 1736.089844 1716.148438 "/>
<path fill-rule="nonzero" fill="rgb(12.860107%, 11.213684%, 11.195374%)" fill-opacity="1" d="M 1971.21875 1714.429688 L 2000.128906 1714.429688 L 2000.128906 1715.949219 C 1995.730469 1716.089844 1992.691406 1717.019531 1991 1718.738281 C 1989.308594 1720.46875 1988.46875 1724.101562 1988.46875 1729.648438 L 1988.46875 1865.671875 L 1869.28125 1738.761719 L 1869.28125 1849.25 C 1869.28125 1852.761719 1869.550781 1855.359375 1870.089844 1857.050781 C 1870.628906 1858.738281 1871.410156 1859.890625 1872.421875 1860.5 C 1873.441406 1861.109375 1875.96875 1861.710938 1880.03125 1862.320312 L 1880.03125 1863.839844 L 1851.320312 1863.839844 L 1851.320312 1862.320312 C 1856.460938 1862.320312 1859.660156 1861.410156 1860.910156 1859.589844 C 1862.160156 1857.761719 1862.789062 1853.398438 1862.789062 1846.511719 L 1862.789062 1745.449219 C 1862.789062 1736.601562 1861.550781 1729.371094 1859.078125 1723.761719 C 1856.609375 1718.148438 1850.921875 1715.550781 1841.988281 1715.949219 L 1841.988281 1714.429688 L 1870.089844 1714.429688 L 1982.070312 1833.671875 L 1982.070312 1728.21875 C 1982.070312 1722.539062 1981.058594 1719.078125 1979.03125 1717.828125 C 1977 1716.578125 1974.398438 1715.949219 1971.21875 1715.949219 L 1971.21875 1714.429688 "/>
<path fill-rule="nonzero" fill="rgb(72.622681%, 43.617249%, 19.023132%)" fill-opacity="1" d="M 1433.941406 1181.328125 C 1438 1132.351562 1459.050781 1087.628906 1469.378906 1039.378906 C 1473.519531 1020.089844 1476.148438 1000.410156 1476.628906 980.621094 C 1481.609375 876.308594 1409.339844 799.371094 1365.710938 711.878906 C 1365.050781 710.53125 1363.441406 709.929688 1362.039062 710.53125 C 1360.570312 711.160156 1359.929688 712.929688 1360.628906 714.371094 C 1383.441406 767.351562 1417.890625 815.308594 1440.28125 868.070312 C 1440.03125 867.769531 1439.800781 867.480469 1439.539062 867.191406 C 1419.71875 845.289062 1384.03125 841.429688 1357.949219 853.53125 C 1352.730469 856.160156 1347.910156 859.980469 1344.398438 862.71875 C 1340.96875 865.199219 1337.039062 868.699219 1333.269531 869.589844 C 1302.980469 872.480469 1298.941406 821.730469 1293.578125 800.160156 C 1288.378906 774.980469 1277.230469 750.398438 1264.78125 727.929688 C 1237.46875 679.371094 1199.089844 635.558594 1149.621094 608.800781 C 1121.101562 593.46875 1086.359375 589.46875 1054.441406 596.269531 C 1054.140625 596.011719 1053.828125 595.738281 1053.519531 595.460938 C 1051.46875 593.648438 1049.351562 591.769531 1046.761719 590.589844 C 1045.269531 589.910156 1043.730469 589.328125 1042.171875 588.839844 C 1049.589844 585.390625 1057.148438 582.28125 1064.859375 579.601562 C 1087.429688 571.871094 1111.230469 567.941406 1135.050781 567.601562 C 1182.941406 566.691406 1230.03125 580.378906 1272.769531 601.320312 C 1326.710938 627.808594 1373.230469 667.191406 1413.929688 711.03125 C 1430.210938 728.679688 1445.460938 747.300781 1459.460938 766.808594 C 1472.828125 786 1487.320312 806.261719 1496.441406 827.53125 C 1505.25 849.53125 1504.808594 873.929688 1508.929688 897.609375 C 1513.109375 922.230469 1522.730469 945.320312 1531.960938 968.101562 C 1550.148438 1012.679688 1564.179688 1059.191406 1573.519531 1106.421875 C 1583.941406 1159.710938 1588.558594 1214.140625 1587.121094 1268.441406 C 1587.039062 1270.859375 1586.941406 1273.339844 1586.839844 1275.839844 C 1585.589844 1272.640625 1584.25 1269.480469 1582.808594 1266.371094 C 1564.140625 1226.121094 1531.628906 1193.128906 1519.410156 1149.941406 C 1510.308594 1117.988281 1510.71875 1084.75 1510.53125 1051.550781 C 1510.441406 1029.300781 1509.980469 1006.679688 1506.640625 984.390625 C 1500.878906 945.441406 1487.300781 892.390625 1479 853.390625 C 1473.628906 831.589844 1471.148438 807.621094 1456.761719 789.171875 C 1453.191406 785.070312 1447.738281 790.140625 1450.511719 793.898438 C 1459.800781 806.851562 1462.761719 823.558594 1465.769531 839.238281 C 1470.480469 864.578125 1476.511719 895.851562 1481.628906 921.261719 C 1487.101562 948.570312 1492.75 975.101562 1494.960938 1002.449219 C 1498.941406 1052.851562 1491.140625 1104.519531 1505.289062 1154.011719 C 1520.449219 1208.550781 1568 1246.039062 1585.640625 1299.03125 C 1585.121094 1307.128906 1584.480469 1315.140625 1583.640625 1322.660156 C 1582.648438 1334.679688 1580.78125 1346.710938 1580.039062 1359.078125 C 1579.808594 1362.710938 1579.710938 1366.378906 1579.738281 1370.070312 C 1579.308594 1369.648438 1578.859375 1369.238281 1578.429688 1368.820312 C 1542 1333.179688 1520.769531 1285.429688 1516.011719 1234.160156 C 1515.898438 1228.890625 1508.488281 1228.859375 1508.160156 1233.910156 C 1507.21875 1264.898438 1513.679688 1295.949219 1526.308594 1324.160156 C 1538.878906 1352.371094 1557.910156 1377.898438 1581.578125 1397.71875 C 1604.089844 1417.039062 1630.148438 1434.101562 1640.941406 1462.71875 C 1651.441406 1489.570312 1648.011719 1521.71875 1631.808594 1545.488281 C 1537 1443.941406 1423.199219 1330.710938 1433.941406 1181.328125 Z M 1389.03125 998.871094 C 1388.78125 998.960938 1388.519531 999.078125 1388.25 999.230469 C 1386.828125 1000.070312 1383.980469 1001.839844 1382.558594 1002.679688 C 1374.980469 1006.96875 1366.671875 1010.351562 1358.289062 1012.660156 C 1345.628906 1015.96875 1331.890625 1017.699219 1319.039062 1015.789062 C 1314.070312 1014.921875 1307.488281 1013.230469 1307.328125 1007.261719 C 1307.300781 997.558594 1313.191406 988.210938 1317.628906 979.601562 C 1320.679688 975.421875 1315.269531 970.648438 1311.679688 974.488281 C 1303.589844 984 1293.601562 1000.671875 1297.320312 1012.859375 C 1286.691406 1025.039062 1275.96875 1037.121094 1264.949219 1048.890625 C 1253.691406 1060.929688 1242.089844 1072.640625 1230.25 1084.140625 C 1224.449219 1089.878906 1218.351562 1095.070312 1211.421875 1098.75 C 1197.441406 1106.628906 1180.011719 1105.46875 1164.390625 1105.578125 C 1119.070312 1105.441406 1073.710938 1102.78125 1028.730469 1097.128906 C 1016.308594 1095.429688 1003.949219 1093.679688 991.28125 1093.730469 C 975.695312 1093.570312 956.839844 1097.328125 947.765625 1111.261719 C 932.484375 1102.898438 919.441406 1091.160156 915.984375 1073.480469 C 915.175781 1068.210938 915.585938 1063.078125 916.457031 1057.730469 C 922.394531 1025.5 923.773438 992.148438 919.699219 959.570312 C 916.78125 935.449219 909.511719 908.058594 926.742188 888.210938 C 932.535156 895.199219 938.707031 901.878906 945.246094 908.179688 C 949.136719 911.609375 954.113281 906.339844 950.691406 902.53125 C 946.054688 895.800781 934.878906 880.371094 930.644531 873.648438 C 928.839844 870.75 926.148438 866.820312 924.394531 863.949219 C 920.714844 857.269531 912.972656 847.980469 916.113281 840.71875 C 916.949219 839.011719 918.941406 836.871094 921.640625 834.660156 L 940.023438 819.820312 C 956.667969 804.988281 987.636719 786.359375 983.8125 760.519531 C 983.257812 755.300781 975.757812 755.890625 975.980469 761.050781 C 976.46875 767.75 973.242188 774.351562 968.464844 779.96875 C 963.671875 785.660156 957.625 790.488281 951.324219 795.28125 L 924.582031 815.800781 C 924.636719 795.519531 921.675781 776.03125 929.871094 757.25 C 932.699219 750.5 936.5 744.050781 940.3125 737.308594 C 948.867188 722.070312 955.820312 706.410156 964.109375 691.398438 C 970.878906 679.519531 976.675781 667.070312 979.144531 653.511719 C 990.765625 642.230469 1002.429688 631.089844 1015.738281 622.539062 C 1028.429688 614.519531 1042.699219 609.550781 1057.46875 607.101562 C 1057.601562 607.128906 1057.71875 607.179688 1057.859375 607.210938 C 1059.011719 607.46875 1060.160156 607.179688 1061.050781 606.53125 C 1077.019531 604.328125 1093.480469 605.058594 1109.101562 608.128906 C 1154.140625 617.371094 1197.070312 658.480469 1224.339844 694.21875 C 1244.109375 720.378906 1260.300781 749.359375 1271.710938 780.101562 C 1284.359375 811.320312 1281.289062 865.558594 1315.878906 881.980469 C 1321.628906 884.570312 1328.109375 885.53125 1334.371094 884.851562 C 1346.078125 883.511719 1354 873.199219 1363.429688 867.859375 C 1373.808594 862.449219 1385.96875 861.078125 1397.539062 862.480469 C 1412.46875 864.28125 1428.511719 872.011719 1434.011719 886.621094 C 1441.300781 908.050781 1431.769531 935.890625 1422.308594 955.699219 C 1414.28125 972.390625 1402.019531 985.878906 1389.03125 998.871094 Z M 1029.710938 594.839844 C 1029.910156 594.839844 1030.109375 594.839844 1030.308594 594.851562 C 1034.910156 594.898438 1039.46875 595.890625 1043.511719 597.730469 C 1043.988281 597.949219 1044.488281 598.269531 1045 598.621094 C 1036.96875 600.910156 1029.199219 603.921875 1021.820312 607.628906 C 1004.71875 616.730469 990.890625 630.460938 977.882812 644.460938 C 987.121094 611.148438 1004.21875 594.839844 1029.710938 594.839844 Z M 1028.160156 1173.871094 C 1031.460938 1184.230469 1034.628906 1195.460938 1038.101562 1205.980469 C 1043.308594 1223.710938 1045.148438 1242.039062 1046.089844 1260.621094 C 1048.109375 1318.710938 1052.058594 1379.121094 1033.148438 1434.761719 C 1033.25 1433.890625 1033.320312 1433.269531 1033.320312 1433.269531 C 1024.808594 1432.328125 1016.289062 1431.53125 1007.769531 1430.78125 C 1000.078125 1407.550781 992.964844 1385.550781 990.023438 1361.398438 C 988.25 1343.46875 990.855469 1325.800781 996.269531 1308.53125 C 1009.859375 1266.328125 1030.621094 1227.109375 1014.859375 1181.351562 C 1013.769531 1178.171875 1011.109375 1170.308594 1009.929688 1166.980469 C 1006.890625 1158 1002.519531 1149.339844 997.359375 1141.230469 C 999.355469 1142.050781 1001.351562 1142.890625 1003.320312 1143.789062 C 1003.859375 1144.089844 1004.460938 1144.238281 1005.050781 1144.269531 C 1017.359375 1149.640625 1024.160156 1161.03125 1028.160156 1173.871094 Z M 1710.820312 1660.980469 C 1701.199219 1623.589844 1679.449219 1589.980469 1651.398438 1563.71875 C 1647.429688 1560.039062 1643.429688 1556.539062 1638.988281 1553.191406 C 1638.339844 1552.488281 1637.691406 1551.789062 1637.039062 1551.089844 C 1637.410156 1550.851562 1637.871094 1550.570312 1637.871094 1550.570312 C 1648.859375 1543.578125 1656.730469 1532.339844 1661.671875 1520.359375 C 1677.039062 1481.398438 1660.28125 1439.089844 1630.398438 1412.238281 C 1617.578125 1400.140625 1602.058594 1389.398438 1588.339844 1377.761719 C 1588.398438 1371.789062 1588.980469 1365.769531 1589.800781 1359.761719 C 1592.488281 1342.25 1596.421875 1323.710938 1598.660156 1305.738281 C 1612.308594 1201.488281 1600.050781 1093.921875 1564.539062 995.019531 C 1552.949219 961.648438 1534.261719 928.128906 1527.320312 894.53125 C 1522.390625 870.871094 1521.761719 844.761719 1511.25 821.570312 C 1500.179688 798.25 1485.21875 779.339844 1470.039062 759.199219 C 1440.148438 720.328125 1405.96875 685.011719 1368.460938 653.53125 C 1276.328125 575.859375 1144.300781 527.890625 1030.671875 587.011719 C 1030.578125 587.011719 1030.488281 587 1030.390625 587 C 995.613281 586.648438 973.828125 612.699219 965.660156 664.441406 C 962.445312 670.820312 958.898438 677.109375 955.175781 683.089844 C 945.921875 698.359375 938.554688 715.890625 930.054688 731.558594 C 915.828125 755.929688 911.75 772.671875 914.941406 801.078125 C 915.613281 808.191406 916.175781 815.101562 916.453125 822.03125 L 913.316406 824.441406 C 910.101562 827.078125 906.726562 830.160156 904.402344 834.460938 C 897.488281 847.230469 906.742188 861 913.851562 871.230469 C 916.402344 874.921875 919.070312 878.539062 921.820312 882.089844 C 921.652344 882.210938 921.484375 882.328125 921.324219 882.480469 C 916.226562 887.621094 912.574219 894.039062 910.347656 900.730469 C 905.878906 913.828125 906.371094 928.03125 907.894531 941.410156 C 912.683594 973.191406 913.558594 1005.261719 909.253906 1037.039062 C 907.789062 1050.429688 903.015625 1064.378906 906.222656 1077.929688 C 912.9375 1106.660156 941.328125 1122.601562 967.339844 1130.710938 C 974.113281 1132.96875 980.847656 1135.121094 987.484375 1137.480469 C 989.859375 1141.910156 992.125 1146.371094 994.089844 1150.910156 C 998.625 1161.089844 1001.179688 1173.210938 1003.921875 1184.050781 C 1019.351562 1241.148438 973.832031 1287.191406 971.027344 1342.671875 C 969.183594 1373.761719 977.972656 1406.320312 998.621094 1429.988281 C 961.039062 1426.96875 923.339844 1425.75 885.597656 1426.519531 C 873.21875 1426.851562 860.769531 1427.628906 848.386719 1429.578125 C 804.066406 1436.539062 781.507812 1453.710938 757.464844 1490.710938 L 763.929688 1495.171875 C 776.382812 1481.800781 787.171875 1468.550781 802.726562 1459.921875 C 822.558594 1448.460938 845.679688 1445.148438 868.234375 1443.5 C 922.417969 1441.089844 976.527344 1442.820312 1030.890625 1441.109375 C 1030.699219 1441.628906 1030.519531 1442.140625 1030.320312 1442.648438 C 1028.289062 1447.261719 1026.101562 1453.21875 1023.558594 1457.570312 C 1020.03125 1463.988281 1016.070312 1470.328125 1012.089844 1476.648438 C 1011.011719 1478.359375 1011.410156 1480.648438 1013.058594 1481.878906 C 1014.890625 1483.261719 1017.488281 1482.730469 1018.730469 1480.839844 C 1024.410156 1473.191406 1030.378906 1465.550781 1035.121094 1457.011719 C 1037.601562 1452.199219 1040.660156 1446.269531 1042.660156 1441.238281 C 1060.96875 1398.671875 1063.828125 1350.460938 1063.609375 1305.160156 C 1063.039062 1274.21875 1063.878906 1243.851562 1057.03125 1213.039062 C 1055.25 1205.421875 1052.648438 1197.851562 1049.761719 1190.578125 C 1041.621094 1167.980469 1032.800781 1140.21875 1005.28125 1135.929688 C 994.105469 1129.800781 982.261719 1125.671875 970.84375 1121.378906 C 965.214844 1119.351562 959.417969 1117.039062 953.785156 1114.339844 C 962.871094 1104.179688 978.269531 1103.410156 991.332031 1104.28125 C 1006.96875 1105.429688 1023.859375 1109.589844 1039.46875 1112.070312 C 1084.871094 1119.308594 1130.929688 1122.828125 1176.910156 1122.609375 C 1191.421875 1122.929688 1206.511719 1121.160156 1219.46875 1113.898438 C 1225.121094 1110.871094 1229.878906 1107.160156 1234.511719 1103.128906 C 1249.140625 1089.199219 1262.078125 1073.820312 1274.601562 1057.921875 C 1283.941406 1045.671875 1293.199219 1032.53125 1300.941406 1019.140625 C 1302.71875 1021.058594 1305.070312 1022.738281 1308.148438 1024.101562 C 1320.058594 1028.621094 1332.070312 1027.769531 1344.070312 1026.109375 C 1352.339844 1024.808594 1360.46875 1022.628906 1368.230469 1019.550781 C 1361.921875 1026.070312 1355.878906 1032.808594 1350.539062 1040.101562 C 1327.808594 1070.480469 1314.421875 1106.738281 1305.710938 1143.320312 C 1298.21875 1175.910156 1292.140625 1209.148438 1294.011719 1242.800781 C 1298.710938 1326.628906 1368.078125 1398.238281 1437.289062 1438.421875 C 1448.089844 1444.679688 1459.320312 1450.46875 1470.628906 1455.800781 C 1489.339844 1464.199219 1506.28125 1475.460938 1521.679688 1489.089844 C 1571.320312 1532.679688 1605.339844 1593.351562 1659.890625 1632.058594 C 1661.449219 1633.171875 1663.609375 1632.828125 1664.75 1631.28125 C 1665.929688 1629.699219 1665.550781 1627.441406 1663.929688 1626.308594 C 1610.128906 1586.25 1578.121094 1526.441406 1528.21875 1481.621094 C 1512.671875 1467.46875 1494.460938 1454.960938 1475.191406 1446.089844 L 1469.691406 1443.398438 L 1464.261719 1440.601562 C 1442.648438 1429.378906 1421.941406 1416.230469 1402.859375 1401.191406 C 1354.351562 1361.941406 1310.289062 1306.519531 1307.210938 1242 C 1305.679688 1210.101562 1311.898438 1177.691406 1319.328125 1146.578125 C 1328 1111.800781 1340.621094 1077.511719 1362.160156 1048.808594 C 1387.628906 1016.320312 1413.96875 1000.808594 1432.46875 968.25 C 1432.570312 973.269531 1431.980469 978.371094 1430.851562 983.378906 C 1428.691406 993.351562 1424.441406 1002.820312 1420.558594 1012.269531 C 1412.480469 1031.449219 1403.429688 1050.230469 1393.191406 1068.308594 C 1377.660156 1095.421875 1359.53125 1121.710938 1345.960938 1150.191406 C 1335.800781 1171.789062 1328.011719 1195.371094 1327.050781 1219.398438 C 1324.730469 1262.210938 1338.988281 1304.738281 1361.378906 1340.769531 C 1365.28125 1347.179688 1370.339844 1354.53125 1374.921875 1360.480469 C 1387.789062 1377.410156 1402.679688 1392.839844 1419.410156 1406.058594 C 1420.839844 1407.191406 1422.898438 1407.191406 1424.328125 1405.96875 C 1426.28125 1404.378906 1426.019531 1401.480469 1424.25 1399.878906 C 1420.851562 1395.871094 1417.269531 1392.179688 1413.960938 1388.238281 C 1410.960938 1384.550781 1407.078125 1380.210938 1404.238281 1376.351562 C 1371.171875 1333.800781 1346.050781 1281.910156 1345.011719 1227.558594 C 1345.089844 1225.191406 1345.300781 1219.121094 1345.371094 1216.820312 C 1345.71875 1213.421875 1346.019531 1209.609375 1346.589844 1206.238281 C 1350.808594 1179.339844 1362.179688 1154.390625 1375.421875 1130.578125 C 1383.738281 1115.070312 1393.738281 1098.339844 1402.351562 1082.75 C 1413.738281 1061.53125 1423.578125 1039.441406 1431.609375 1016.929688 C 1438.851562 997.5 1445.789062 975.820312 1438.929688 955.371094 C 1441.339844 949.929688 1443.558594 944.039062 1445.550781 937.578125 C 1449.300781 925.519531 1452.210938 911.601562 1451.441406 898.308594 C 1454.089844 906.851562 1456.359375 915.539062 1458.121094 924.429688 C 1465.140625 961.328125 1462.460938 999.53125 1453.921875 1036.058594 C 1445 1074 1429.359375 1110.128906 1421.101562 1149.121094 C 1398.289062 1251.058594 1444.578125 1355.089844 1507.421875 1433.359375 C 1537.769531 1472.011719 1573.191406 1507.53125 1607.980469 1542.210938 C 1615.511719 1549.601562 1622.710938 1557.339844 1630.460938 1564.441406 C 1647.308594 1576.160156 1661.929688 1591.109375 1674.679688 1607.179688 C 1681.03125 1615.480469 1686.941406 1624.191406 1692.078125 1633.410156 C 1697.25 1642.730469 1701.730469 1652.511719 1705.449219 1662.679688 C 1705.949219 1664.019531 1707.390625 1664.789062 1708.808594 1664.421875 C 1710.308594 1664.03125 1711.21875 1662.488281 1710.820312 1660.980469 "/>
<path fill-rule="nonzero" fill="rgb(72.622681%, 43.617249%, 19.023132%)" fill-opacity="1" d="M 1151.238281 1323.851562 L 1151.101562 1322.589844 C 1150.570312 1318.300781 1144.421875 1318.109375 1143.558594 1322.269531 C 1133.03125 1373.570312 1109.800781 1422.25 1076.558594 1462.710938 C 1075.648438 1463.820312 1075.421875 1465.398438 1076.101562 1466.761719 C 1077.03125 1468.609375 1079.28125 1469.359375 1081.128906 1468.441406 L 1082.621094 1467.691406 C 1085.441406 1466.359375 1089.21875 1463.761719 1091.859375 1462.109375 C 1132.179688 1433.210938 1156.28125 1372.738281 1151.238281 1323.851562 "/>
<path fill-rule="nonzero" fill="rgb(72.622681%, 43.617249%, 19.023132%)" fill-opacity="1" d="M 1441.179688 1455.039062 C 1345.660156 1444.808594 1248.730469 1447.851562 1154.039062 1464.058594 C 1148.828125 1465.199219 1150.390625 1472.449219 1155.359375 1471.800781 C 1197.039062 1469.511719 1238.460938 1467.160156 1280.070312 1466.171875 C 1302.648438 1465.730469 1328.46875 1465.621094 1350.988281 1465.910156 C 1371.621094 1466.078125 1392.640625 1465.679688 1413.28125 1464.878906 C 1422.621094 1464.328125 1431.871094 1463.941406 1441.238281 1462.738281 C 1445.800781 1462.128906 1445.660156 1455.570312 1441.179688 1455.039062 "/>
<path fill-rule="nonzero" fill="rgb(72.622681%, 43.617249%, 19.023132%)" fill-opacity="1" d="M 1223.949219 766.871094 C 1211.46875 777.640625 1194.460938 780.890625 1178.640625 778.660156 C 1155.699219 775.269531 1133.710938 765.648438 1109.238281 768.460938 C 1088.488281 770.761719 1069.359375 782.171875 1057.03125 798.421875 C 1055.839844 799.980469 1054.191406 802.300781 1053.011719 803.921875 C 1049.398438 808.410156 1044.679688 815.269531 1038.160156 811.589844 C 1040.789062 816.980469 1047.859375 816.539062 1052.488281 814.53125 C 1057.238281 812.71875 1061.160156 809.808594 1065.289062 807.039062 C 1087.441406 792.171875 1109.199219 788.410156 1135.140625 794.238281 C 1148.261719 796.789062 1163.191406 800.351562 1177.449219 800.21875 C 1198.128906 800.199219 1220.371094 790.171875 1229.449219 770.890625 C 1231.558594 766.308594 1232.71875 761.46875 1233.050781 756.71875 C 1230.148438 760.558594 1227.21875 764 1223.949219 766.871094 "/>
<path fill-rule="nonzero" fill="rgb(72.622681%, 43.617249%, 19.023132%)" fill-opacity="1" d="M 1398.058594 871.230469 C 1383.75 869.328125 1372.261719 872.578125 1363.890625 880.898438 C 1345.308594 899.378906 1349.738281 936.128906 1349.929688 937.679688 C 1350.261719 940.261719 1352.628906 942.078125 1355.199219 941.761719 C 1357.78125 941.441406 1359.601562 939.078125 1359.28125 936.5 C 1359.238281 936.171875 1355.25 902.761719 1370.550781 887.570312 C 1376.820312 881.339844 1385.410156 879.050781 1396.839844 880.570312 C 1397.328125 880.628906 1409.019531 882.339844 1414.5 893.808594 C 1419.761719 904.808594 1420.371094 927.269531 1393.410156 971.71875 C 1392.070312 973.949219 1392.78125 976.839844 1395 978.191406 C 1395.761719 978.660156 1396.601562 978.871094 1397.441406 978.871094 C 1399.03125 978.871094 1400.578125 978.070312 1401.46875 976.609375 C 1424.929688 937.898438 1432.148438 908.621094 1422.910156 889.570312 C 1415.121094 873.511719 1398.710938 871.308594 1398.058594 871.230469 "/>
<path fill-rule="nonzero" fill="rgb(72.622681%, 43.617249%, 19.023132%)" fill-opacity="1" d="M 1381.808594 946.808594 C 1379.230469 946.511719 1376.878906 948.339844 1376.570312 950.921875 C 1375.660156 958.378906 1373.488281 963.660156 1370.460938 965.769531 C 1368.789062 966.929688 1367.171875 966.871094 1366.601562 966.800781 C 1352.980469 960.210938 1344.441406 964.078125 1343.5 964.550781 C 1341.171875 965.71875 1340.179688 968.570312 1341.339844 970.898438 C 1342.511719 973.21875 1345.28125 974.191406 1347.609375 973.03125 C 1347.828125 972.929688 1353.269531 970.660156 1362.941406 975.5 L 1363.699219 975.800781 C 1363.980469 975.878906 1365.300781 976.238281 1367.191406 976.238281 C 1369.410156 976.238281 1372.421875 975.75 1375.480469 973.738281 C 1381.109375 970.050781 1384.621094 962.75 1385.921875 952.058594 C 1386.230469 949.46875 1384.390625 947.128906 1381.808594 946.808594 "/>
<g clip-path="url(#clip-2)">
<g clip-path="url(#clip-3)">
<g clip-path="url(#clip-4)">
<path fill-rule="nonzero" fill="url(#radial-pattern-0)" d="M 3058.160156 565.160156 L 3058.160156 2041.078125 L 4534.078125 2041.078125 L 4534.078125 565.160156 Z M 3058.160156 565.160156 "/>
</g>
</g>
</g>
<path fill-rule="nonzero" fill="rgb(100%, 100%, 100%)" fill-opacity="1" d="M 3808.179688 1942.949219 L 3784.070312 1942.949219 C 3430.699219 1942.949219 3144.238281 1656.488281 3144.238281 1303.121094 C 3144.238281 949.75 3430.699219 663.28125 3784.070312 663.28125 L 3808.179688 663.28125 C 4161.550781 663.28125 4448.011719 949.75 4448.011719 1303.121094 C 4448.011719 1656.488281 4161.550781 1942.949219 3808.179688 1942.949219 "/>
<path fill-rule="nonzero" fill="rgb(67.164612%, 39.912415%, 19.9646%)" fill-opacity="1" d="M 4366.199219 1303.121094 L 4361.890625 1303.121094 C 4361.890625 1459.359375 4298.570312 1600.78125 4196.179688 1703.179688 C 4093.78125 1805.570312 3952.371094 1868.878906 3796.121094 1868.890625 C 3639.878906 1868.890625 3498.460938 1805.570312 3396.058594 1703.179688 C 3293.671875 1600.78125 3230.359375 1459.359375 3230.351562 1303.121094 C 3230.359375 1146.871094 3293.671875 1005.460938 3396.058594 903.058594 C 3498.460938 800.671875 3639.878906 737.351562 3796.121094 737.351562 C 3952.371094 737.351562 4093.78125 800.671875 4196.179688 903.058594 C 4298.570312 1005.460938 4361.890625 1146.871094 4361.890625 1303.121094 L 4370.5 1303.121094 C 4370.5 985.898438 4113.339844 728.738281 3796.121094 728.738281 C 3478.898438 728.738281 3221.75 985.898438 3221.75 1303.121094 C 3221.738281 1461.710938 3286.039062 1605.339844 3389.980469 1709.261719 C 3493.910156 1813.199219 3637.53125 1877.5 3796.121094 1877.488281 C 4113.339844 1877.488281 4370.5 1620.339844 4370.5 1303.121094 L 4366.199219 1303.121094 "/>
<path fill-rule="nonzero" fill="rgb(72.622681%, 43.617249%, 19.023132%)" fill-opacity="1" d="M 3942.011719 1332.46875 C 3944.980469 1296.699219 3960.351562 1264.039062 3967.890625 1228.800781 C 3970.921875 1214.710938 3972.839844 1200.339844 3973.191406 1185.890625 C 3976.828125 1109.699219 3924.050781 1053.511719 3892.179688 989.609375 C 3891.699219 988.628906 3890.519531 988.179688 3889.5 988.621094 C 3888.421875 989.089844 3887.960938 990.371094 3888.46875 991.429688 C 3905.128906 1030.121094 3930.289062 1065.148438 3946.640625 1103.679688 C 3946.460938 1103.46875 3946.289062 1103.25 3946.101562 1103.039062 C 3931.628906 1087.050781 3905.558594 1084.230469 3886.511719 1093.070312 C 3882.699219 1094.980469 3879.179688 1097.769531 3876.621094 1099.78125 C 3874.109375 1101.589844 3871.238281 1104.148438 3868.488281 1104.800781 C 3846.359375 1106.898438 3843.410156 1069.839844 3839.5 1054.089844 C 3835.699219 1035.699219 3827.558594 1017.75 3818.460938 1001.328125 C 3798.519531 965.871094 3770.488281 933.871094 3734.351562 914.320312 C 3713.53125 903.128906 3688.160156 900.210938 3664.839844 905.171875 C 3664.621094 904.980469 3664.398438 904.78125 3664.171875 904.578125 C 3662.671875 903.261719 3661.128906 901.878906 3659.230469 901.019531 C 3658.140625 900.519531 3657.019531 900.109375 3655.878906 899.75 C 3661.300781 897.230469 3666.820312 894.949219 3672.449219 893 C 3688.941406 887.351562 3706.320312 884.480469 3723.71875 884.230469 C 3758.691406 883.570312 3793.078125 893.570312 3824.300781 908.859375 C 3863.699219 928.210938 3897.671875 956.96875 3927.398438 988.988281 C 3939.289062 1001.878906 3950.421875 1015.480469 3960.648438 1029.730469 C 3970.410156 1043.738281 3981 1058.539062 3987.660156 1074.078125 C 3994.101562 1090.140625 3993.78125 1107.960938 3996.78125 1125.261719 C 3999.839844 1143.238281 4006.859375 1160.101562 4013.601562 1176.738281 C 4026.890625 1209.300781 4037.128906 1243.269531 4043.960938 1277.761719 C 4051.558594 1316.679688 4054.941406 1356.441406 4053.890625 1396.089844 C 4053.828125 1397.859375 4053.761719 1399.671875 4053.679688 1401.5 C 4052.769531 1399.160156 4051.789062 1396.851562 4050.738281 1394.589844 C 4037.109375 1365.191406 4013.359375 1341.089844 4004.429688 1309.550781 C 3997.789062 1286.21875 3998.089844 1261.941406 3997.949219 1237.691406 C 3997.890625 1221.441406 3997.550781 1204.921875 3995.109375 1188.640625 C 3990.898438 1160.191406 3980.980469 1121.449219 3974.921875 1092.960938 C 3971 1077.039062 3969.191406 1059.53125 3958.679688 1046.058594 C 3956.070312 1043.070312 3952.089844 1046.769531 3954.109375 1049.519531 C 3960.898438 1058.980469 3963.058594 1071.171875 3965.261719 1082.628906 C 3968.699219 1101.140625 3973.101562 1123.96875 3976.851562 1142.53125 C 3980.839844 1162.480469 3984.96875 1181.851562 3986.578125 1201.828125 C 3989.480469 1238.640625 3983.789062 1276.378906 3994.128906 1312.519531 C 4005.199219 1352.359375 4039.921875 1379.738281 4052.808594 1418.441406 C 4052.429688 1424.351562 4051.960938 1430.210938 4051.351562 1435.699219 C 4050.621094 1444.46875 4049.261719 1453.261719 4048.71875 1462.300781 C 4048.550781 1464.949219 4048.480469 1467.628906 4048.5 1470.320312 C 4048.179688 1470.019531 4047.859375 1469.71875 4047.539062 1469.410156 C 4020.929688 1443.378906 4005.429688 1408.511719 4001.949219 1371.058594 C 4001.871094 1367.210938 3996.460938 1367.191406 3996.21875 1370.878906 C 3995.53125 1393.511719 4000.25 1416.191406 4009.46875 1436.789062 C 4018.660156 1457.398438 4032.550781 1476.039062 4049.839844 1490.519531 C 4066.28125 1504.628906 4085.320312 1517.089844 4093.191406 1537.988281 C 4100.871094 1557.601562 4098.359375 1581.078125 4086.53125 1598.441406 C 4017.28125 1524.28125 3934.171875 1441.570312 3942.011719 1332.46875 Z M 3909.21875 1199.210938 C 3909.03125 1199.28125 3908.839844 1199.371094 3908.648438 1199.480469 C 3907.601562 1200.089844 3905.519531 1201.378906 3904.488281 1202 C 3898.949219 1205.128906 3892.878906 1207.601562 3886.761719 1209.28125 C 3877.519531 1211.710938 3867.480469 1212.96875 3858.089844 1211.570312 C 3854.460938 1210.941406 3849.660156 1209.699219 3849.539062 1205.351562 C 3849.519531 1198.261719 3853.820312 1191.429688 3857.058594 1185.140625 C 3859.289062 1182.089844 3855.339844 1178.609375 3852.71875 1181.410156 C 3846.808594 1188.359375 3839.519531 1200.53125 3842.230469 1209.429688 C 3834.46875 1218.328125 3826.640625 1227.148438 3818.589844 1235.75 C 3810.359375 1244.539062 3801.890625 1253.089844 3793.25 1261.488281 C 3789.011719 1265.691406 3784.558594 1269.46875 3779.488281 1272.160156 C 3769.28125 1277.921875 3756.558594 1277.070312 3745.148438 1277.148438 C 3712.039062 1277.050781 3678.910156 1275.109375 3646.070312 1270.980469 C 3636.988281 1269.738281 3627.96875 1268.460938 3618.710938 1268.5 C 3607.328125 1268.378906 3593.558594 1271.128906 3586.929688 1281.300781 C 3575.769531 1275.191406 3566.238281 1266.621094 3563.71875 1253.710938 C 3563.128906 1249.859375 3563.429688 1246.109375 3564.070312 1242.199219 C 3568.398438 1218.671875 3569.410156 1194.308594 3566.429688 1170.511719 C 3564.300781 1152.898438 3558.988281 1132.890625 3571.578125 1118.390625 C 3575.808594 1123.5 3580.320312 1128.378906 3585.089844 1132.980469 C 3587.929688 1135.480469 3591.570312 1131.640625 3589.070312 1128.851562 C 3585.679688 1123.941406 3577.519531 1112.671875 3574.429688 1107.761719 C 3573.109375 1105.640625 3571.140625 1102.78125 3569.859375 1100.671875 C 3567.171875 1095.800781 3561.519531 1089.011719 3563.808594 1083.710938 C 3564.429688 1082.460938 3565.878906 1080.898438 3567.851562 1079.28125 L 3581.28125 1068.449219 C 3593.429688 1057.609375 3616.050781 1044.011719 3613.261719 1025.140625 C 3612.851562 1021.328125 3607.378906 1021.75 3607.539062 1025.519531 C 3607.898438 1030.421875 3605.539062 1035.230469 3602.050781 1039.339844 C 3598.550781 1043.5 3594.128906 1047.019531 3589.53125 1050.519531 L 3570 1065.511719 C 3570.039062 1050.691406 3567.878906 1036.460938 3573.859375 1022.75 C 3575.929688 1017.820312 3578.699219 1013.109375 3581.488281 1008.179688 C 3587.738281 997.050781 3592.808594 985.621094 3598.871094 974.648438 C 3603.808594 965.980469 3608.050781 956.878906 3609.851562 946.980469 C 3618.339844 938.738281 3626.859375 930.601562 3636.570312 924.359375 C 3645.839844 918.5 3656.269531 914.871094 3667.050781 913.078125 C 3667.148438 913.109375 3667.238281 913.140625 3667.339844 913.160156 C 3668.179688 913.351562 3669.019531 913.140625 3669.671875 912.660156 C 3681.328125 911.058594 3693.359375 911.589844 3704.769531 913.828125 C 3737.660156 920.578125 3769.011719 950.609375 3788.929688 976.710938 C 3803.371094 995.820312 3815.191406 1016.980469 3823.53125 1039.441406 C 3832.761719 1062.238281 3830.519531 1101.851562 3855.78125 1113.839844 C 3859.980469 1115.738281 3864.71875 1116.441406 3869.289062 1115.941406 C 3877.839844 1114.960938 3883.628906 1107.429688 3890.511719 1103.53125 C 3898.101562 1099.578125 3906.96875 1098.578125 3915.429688 1099.601562 C 3926.328125 1100.921875 3938.039062 1106.570312 3942.058594 1117.230469 C 3947.390625 1132.890625 3940.429688 1153.21875 3933.519531 1167.691406 C 3927.648438 1179.878906 3918.699219 1189.730469 3909.21875 1199.210938 Z M 3646.78125 904.128906 C 3646.929688 904.128906 3647.078125 904.128906 3647.21875 904.128906 C 3650.578125 904.171875 3653.910156 904.898438 3656.859375 906.238281 C 3657.210938 906.398438 3657.578125 906.628906 3657.941406 906.890625 C 3652.089844 908.558594 3646.398438 910.761719 3641.019531 913.46875 C 3628.53125 920.121094 3618.429688 930.148438 3608.929688 940.371094 C 3615.679688 916.039062 3628.160156 904.128906 3646.78125 904.128906 Z M 3645.648438 1327.019531 C 3648.058594 1334.589844 3650.371094 1342.800781 3652.910156 1350.480469 C 3656.710938 1363.421875 3658.050781 1376.808594 3658.738281 1390.390625 C 3660.21875 1432.808594 3663.109375 1476.929688 3649.289062 1517.570312 C 3649.359375 1516.929688 3649.410156 1516.480469 3649.410156 1516.480469 C 3643.199219 1515.800781 3636.980469 1515.210938 3630.75 1514.660156 C 3625.140625 1497.691406 3619.941406 1481.628906 3617.789062 1463.988281 C 3616.5 1450.898438 3618.398438 1437.988281 3622.359375 1425.378906 C 3632.28125 1394.558594 3647.449219 1365.910156 3635.941406 1332.488281 C 3635.140625 1330.171875 3633.199219 1324.429688 3632.328125 1322 C 3630.109375 1315.441406 3626.921875 1309.109375 3623.148438 1303.191406 C 3624.609375 1303.789062 3626.058594 1304.398438 3627.5 1305.058594 C 3627.898438 1305.28125 3628.339844 1305.390625 3628.769531 1305.410156 C 3637.761719 1309.328125 3642.730469 1317.648438 3645.648438 1327.019531 Z M 4144.238281 1682.789062 C 4137.210938 1655.480469 4121.320312 1630.929688 4100.839844 1611.75 C 4097.929688 1609.070312 4095.011719 1606.511719 4091.769531 1604.070312 C 4091.300781 1603.558594 4090.820312 1603.050781 4090.339844 1602.53125 C 4090.621094 1602.359375 4090.960938 1602.148438 4090.960938 1602.148438 C 4098.980469 1597.050781 4104.730469 1588.839844 4108.339844 1580.089844 C 4119.558594 1551.640625 4107.320312 1520.730469 4085.5 1501.121094 C 4076.128906 1492.28125 4064.800781 1484.441406 4054.78125 1475.941406 C 4054.828125 1471.578125 4055.25 1467.179688 4055.851562 1462.789062 C 4057.808594 1450 4060.679688 1436.46875 4062.320312 1423.339844 C 4072.289062 1347.199219 4063.328125 1268.640625 4037.398438 1196.398438 C 4028.929688 1172.03125 4015.28125 1147.550781 4010.21875 1123.011719 C 4006.609375 1105.730469 4006.148438 1086.660156 3998.480469 1069.71875 C 3990.390625 1052.691406 3979.46875 1038.878906 3968.378906 1024.171875 C 3946.550781 995.78125 3921.578125 969.988281 3894.191406 946.988281 C 3826.898438 890.269531 3730.46875 855.230469 3647.480469 898.410156 L 3647.28125 898.398438 C 3621.878906 898.148438 3605.96875 917.171875 3600 954.960938 C 3597.648438 959.621094 3595.058594 964.210938 3592.339844 968.578125 C 3585.578125 979.730469 3580.199219 992.53125 3574 1003.980469 C 3563.609375 1021.78125 3560.628906 1034.011719 3562.960938 1054.761719 C 3563.449219 1059.949219 3563.859375 1065 3564.058594 1070.058594 L 3561.769531 1071.820312 C 3559.421875 1073.75 3556.960938 1075.988281 3555.261719 1079.128906 C 3550.210938 1088.460938 3556.96875 1098.519531 3562.160156 1105.988281 C 3564.03125 1108.691406 3565.96875 1111.328125 3567.980469 1113.921875 C 3567.859375 1114.011719 3567.738281 1114.101562 3567.621094 1114.210938 C 3563.898438 1117.96875 3561.230469 1122.648438 3559.601562 1127.539062 C 3556.339844 1137.101562 3556.699219 1147.480469 3557.808594 1157.25 C 3561.308594 1180.460938 3561.949219 1203.878906 3558.800781 1227.101562 C 3557.730469 1236.871094 3554.25 1247.058594 3556.589844 1256.960938 C 3561.5 1277.941406 3582.230469 1289.578125 3601.230469 1295.5 C 3606.179688 1297.160156 3611.089844 1298.71875 3615.941406 1300.449219 C 3617.671875 1303.679688 3619.328125 1306.941406 3620.761719 1310.261719 C 3624.078125 1317.699219 3625.941406 1326.550781 3627.949219 1334.460938 C 3639.210938 1376.171875 3605.96875 1409.789062 3603.921875 1450.308594 C 3602.570312 1473.019531 3608.988281 1496.800781 3624.070312 1514.078125 C 3596.628906 1511.878906 3569.089844 1510.988281 3541.53125 1511.550781 C 3532.488281 1511.789062 3523.390625 1512.371094 3514.351562 1513.789062 C 3481.980469 1518.871094 3465.5 1531.410156 3447.941406 1558.441406 L 3452.660156 1561.691406 C 3461.761719 1551.929688 3469.640625 1542.25 3481 1535.949219 C 3495.488281 1527.578125 3512.371094 1525.160156 3528.851562 1523.949219 C 3568.421875 1522.191406 3607.941406 1523.460938 3647.640625 1522.210938 C 3647.5 1522.589844 3647.371094 1522.960938 3647.230469 1523.328125 C 3645.738281 1526.699219 3644.140625 1531.058594 3642.289062 1534.230469 C 3639.710938 1538.910156 3636.820312 1543.550781 3633.910156 1548.171875 C 3633.128906 1549.421875 3633.421875 1551.089844 3634.621094 1551.980469 C 3635.949219 1552.988281 3637.859375 1552.609375 3638.761719 1551.21875 C 3642.910156 1545.640625 3647.269531 1540.058594 3650.730469 1533.820312 C 3652.539062 1530.308594 3654.78125 1525.96875 3656.238281 1522.300781 C 3669.609375 1491.210938 3671.699219 1456 3671.539062 1422.921875 C 3671.121094 1400.320312 3671.730469 1378.140625 3666.730469 1355.628906 C 3665.441406 1350.070312 3663.53125 1344.539062 3661.429688 1339.230469 C 3655.480469 1322.730469 3649.039062 1302.449219 3628.941406 1299.308594 C 3620.78125 1294.839844 3612.128906 1291.828125 3603.789062 1288.691406 C 3599.679688 1287.210938 3595.441406 1285.519531 3591.328125 1283.550781 C 3597.960938 1276.128906 3609.210938 1275.570312 3618.75 1276.199219 C 3630.171875 1277.050781 3642.511719 1280.078125 3653.910156 1281.890625 C 3687.058594 1287.179688 3720.710938 1289.75 3754.289062 1289.589844 C 3764.890625 1289.820312 3775.910156 1288.53125 3785.371094 1283.230469 C 3789.5 1281.019531 3792.980469 1278.300781 3796.359375 1275.359375 C 3807.039062 1265.191406 3816.5 1253.960938 3825.628906 1242.351562 C 3832.460938 1233.398438 3839.21875 1223.800781 3844.878906 1214.019531 C 3846.179688 1215.421875 3847.890625 1216.648438 3850.140625 1217.640625 C 3858.839844 1220.941406 3867.609375 1220.320312 3876.378906 1219.109375 C 3882.421875 1218.160156 3888.351562 1216.570312 3894.019531 1214.320312 C 3889.410156 1219.078125 3885 1224 3881.101562 1229.328125 C 3864.5 1251.519531 3854.71875 1278 3848.359375 1304.71875 C 3842.890625 1328.519531 3838.441406 1352.789062 3839.820312 1377.371094 C 3843.25 1438.601562 3893.910156 1490.898438 3944.460938 1520.238281 C 3952.351562 1524.808594 3960.550781 1529.039062 3968.808594 1532.941406 C 3982.46875 1539.070312 3994.851562 1547.289062 4006.089844 1557.25 C 4042.351562 1589.089844 4067.199219 1633.398438 4107.039062 1661.671875 C 4108.171875 1662.480469 4109.761719 1662.230469 4110.589844 1661.101562 C 4111.449219 1659.941406 4111.171875 1658.289062 4109.988281 1657.46875 C 4070.691406 1628.210938 4047.308594 1584.53125 4010.871094 1551.789062 C 3999.511719 1541.460938 3986.21875 1532.328125 3972.140625 1525.839844 L 3968.121094 1523.878906 L 3964.148438 1521.828125 C 3948.371094 1513.640625 3933.25 1504.03125 3919.308594 1493.050781 C 3883.890625 1464.390625 3851.699219 1423.910156 3849.460938 1376.789062 C 3848.339844 1353.488281 3852.878906 1329.820312 3858.308594 1307.101562 C 3864.640625 1281.699219 3873.851562 1256.648438 3889.578125 1235.691406 C 3908.191406 1211.960938 3927.429688 1200.628906 3940.941406 1176.851562 C 3941.011719 1180.519531 3940.578125 1184.25 3939.75 1187.898438 C 3938.179688 1195.191406 3935.070312 1202.101562 3932.238281 1209 C 3926.339844 1223.011719 3919.730469 1236.71875 3912.25 1249.929688 C 3900.910156 1269.730469 3887.660156 1288.929688 3877.761719 1309.738281 C 3870.328125 1325.511719 3864.648438 1342.730469 3863.941406 1360.28125 C 3862.25 1391.550781 3872.660156 1422.609375 3889.019531 1448.921875 C 3891.859375 1453.601562 3895.558594 1458.96875 3898.910156 1463.320312 C 3908.308594 1475.679688 3919.179688 1486.949219 3931.398438 1496.609375 C 3932.441406 1497.429688 3933.949219 1497.441406 3935 1496.550781 C 3936.421875 1495.378906 3936.230469 1493.261719 3934.929688 1492.089844 C 3932.449219 1489.171875 3929.839844 1486.46875 3927.421875 1483.589844 C 3925.230469 1480.898438 3922.390625 1477.730469 3920.320312 1474.910156 C 3896.171875 1443.828125 3877.820312 1405.929688 3877.058594 1366.238281 C 3877.121094 1364.511719 3877.269531 1360.070312 3877.320312 1358.398438 C 3877.578125 1355.921875 3877.800781 1353.128906 3878.210938 1350.671875 C 3881.300781 1331.019531 3889.601562 1312.800781 3899.269531 1295.410156 C 3905.351562 1284.078125 3912.648438 1271.859375 3918.941406 1260.480469 C 3927.261719 1244.980469 3934.441406 1228.851562 3940.308594 1212.398438 C 3945.601562 1198.21875 3950.671875 1182.378906 3945.660156 1167.449219 C 3947.410156 1163.46875 3949.039062 1159.171875 3950.488281 1154.449219 C 3953.230469 1145.640625 3955.359375 1135.46875 3954.789062 1125.769531 C 3956.730469 1132.011719 3958.390625 1138.351562 3959.671875 1144.851562 C 3964.800781 1171.800781 3962.839844 1199.691406 3956.609375 1226.371094 C 3950.089844 1254.078125 3938.671875 1280.480469 3932.628906 1308.949219 C 3915.980469 1383.398438 3949.78125 1459.390625 3995.679688 1516.550781 C 4017.839844 1544.769531 4043.710938 1570.71875 4069.121094 1596.050781 C 4074.621094 1601.441406 4079.878906 1607.089844 4085.539062 1612.28125 C 4097.851562 1620.839844 4108.519531 1631.761719 4117.839844 1643.488281 C 4122.46875 1649.558594 4126.789062 1655.921875 4130.550781 1662.660156 C 4134.320312 1669.460938 4137.589844 1676.601562 4140.308594 1684.03125 C 4140.671875 1685.011719 4141.730469 1685.570312 4142.761719 1685.300781 C 4143.859375 1685.019531 4144.519531 1683.890625 4144.238281 1682.789062 "/>
<path fill-rule="nonzero" fill="rgb(72.622681%, 43.617249%, 19.023132%)" fill-opacity="1" d="M 3735.539062 1436.570312 L 3735.441406 1435.640625 C 3735.050781 1432.511719 3730.558594 1432.371094 3729.929688 1435.410156 C 3722.238281 1472.878906 3705.28125 1508.429688 3681 1537.980469 C 3680.328125 1538.789062 3680.171875 1539.949219 3680.660156 1540.941406 C 3681.339844 1542.289062 3682.980469 1542.839844 3684.328125 1542.171875 L 3685.429688 1541.621094 C 3687.480469 1540.648438 3690.238281 1538.75 3692.171875 1537.550781 C 3721.621094 1516.441406 3739.21875 1472.269531 3735.539062 1436.570312 "/>
<path fill-rule="nonzero" fill="rgb(72.622681%, 43.617249%, 19.023132%)" fill-opacity="1" d="M 3947.300781 1532.378906 C 3877.53125 1524.910156 3806.738281 1527.128906 3737.589844 1538.96875 C 3733.78125 1539.800781 3734.921875 1545.101562 3738.550781 1544.621094 C 3768.988281 1542.949219 3799.238281 1541.238281 3829.628906 1540.511719 C 3846.121094 1540.191406 3864.980469 1540.109375 3881.429688 1540.320312 C 3896.5 1540.441406 3911.851562 1540.148438 3926.921875 1539.570312 C 3933.738281 1539.171875 3940.5 1538.878906 3947.339844 1538.011719 C 3950.679688 1537.558594 3950.570312 1532.769531 3947.300781 1532.378906 "/>
<path fill-rule="nonzero" fill="rgb(72.622681%, 43.617249%, 19.023132%)" fill-opacity="1" d="M 3788.640625 1029.769531 C 3779.53125 1037.640625 3767.101562 1040.011719 3755.550781 1038.378906 C 3738.800781 1035.910156 3722.730469 1028.878906 3704.871094 1030.941406 C 3689.710938 1032.609375 3675.738281 1040.949219 3666.730469 1052.808594 C 3665.859375 1053.960938 3664.660156 1055.648438 3663.800781 1056.828125 C 3661.160156 1060.109375 3657.71875 1065.121094 3652.960938 1062.429688 C 3654.871094 1066.371094 3660.039062 1066.050781 3663.421875 1064.578125 C 3666.890625 1063.261719 3669.75 1061.128906 3672.769531 1059.109375 C 3688.941406 1048.25 3704.839844 1045.511719 3723.78125 1049.761719 C 3733.371094 1051.621094 3744.269531 1054.230469 3754.679688 1054.128906 C 3769.789062 1054.121094 3786.03125 1046.789062 3792.660156 1032.710938 C 3794.210938 1029.359375 3795.050781 1025.828125 3795.289062 1022.359375 C 3793.171875 1025.171875 3791.03125 1027.679688 3788.640625 1029.769531 "/>
<path fill-rule="nonzero" fill="rgb(72.622681%, 43.617249%, 19.023132%)" fill-opacity="1" d="M 3915.808594 1105.988281 C 3905.359375 1104.601562 3896.960938 1106.980469 3890.851562 1113.058594 C 3877.28125 1126.550781 3880.511719 1153.390625 3880.660156 1154.53125 C 3880.898438 1156.410156 3882.628906 1157.738281 3884.5 1157.511719 C 3886.378906 1157.269531 3887.71875 1155.550781 3887.480469 1153.660156 C 3887.449219 1153.421875 3884.539062 1129.019531 3895.710938 1117.929688 C 3900.289062 1113.378906 3906.570312 1111.699219 3914.921875 1112.808594 C 3915.28125 1112.859375 3923.808594 1114.101562 3927.808594 1122.480469 C 3931.648438 1130.519531 3932.101562 1146.921875 3912.410156 1179.390625 C 3911.429688 1181.011719 3911.949219 1183.128906 3913.570312 1184.109375 C 3914.128906 1184.449219 3914.738281 1184.609375 3915.351562 1184.609375 C 3916.511719 1184.609375 3917.648438 1184.019531 3918.300781 1182.960938 C 3935.429688 1154.691406 3940.699219 1133.300781 3933.960938 1119.390625 C 3928.269531 1107.660156 3916.28125 1106.050781 3915.808594 1105.988281 "/>
<path fill-rule="nonzero" fill="rgb(72.622681%, 43.617249%, 19.023132%)" fill-opacity="1" d="M 3903.941406 1161.199219 C 3902.050781 1160.96875 3900.339844 1162.308594 3900.109375 1164.199219 C 3899.449219 1169.648438 3897.859375 1173.5 3895.648438 1175.039062 C 3894.429688 1175.890625 3893.25 1175.839844 3892.828125 1175.800781 C 3882.878906 1170.980469 3876.648438 1173.808594 3875.960938 1174.148438 C 3874.261719 1175 3873.53125 1177.089844 3874.378906 1178.78125 C 3875.230469 1180.480469 3877.261719 1181.191406 3878.960938 1180.339844 C 3879.121094 1180.269531 3883.089844 1178.609375 3890.160156 1182.148438 L 3890.710938 1182.371094 C 3890.921875 1182.429688 3891.878906 1182.691406 3893.261719 1182.691406 C 3894.878906 1182.691406 3897.078125 1182.328125 3899.308594 1180.859375 C 3903.429688 1178.160156 3905.988281 1172.839844 3906.941406 1165.019531 C 3907.171875 1163.140625 3905.820312 1161.421875 3903.941406 1161.199219 "/>
</svg>
